<svg width="600" height="165" viewBox="0 0 600 165" fill="none" xmlns="http://www.w3.org/2000/svg">
<path d="M486.333 70C486.333 71.4728 487.527 72.6667 489 72.6667C490.473 72.6667 491.667 71.4728 491.667 70C491.667 68.5272 490.473 67.3333 489 67.3333C487.527 67.3333 486.333 68.5272 486.333 70ZM583.354 70.3536C583.549 70.1583 583.549 69.8417 583.354 69.6464L580.172 66.4645C579.976 66.2692 579.66 66.2692 579.464 66.4645C579.269 66.6597 579.269 66.9763 579.464 67.1716L582.293 70L579.464 72.8284C579.269 73.0237 579.269 73.3403 579.464 73.5355C579.66 73.7308 579.976 73.7308 580.172 73.5355L583.354 70.3536ZM489 70V70.5H489.979V70V69.5H489V70ZM491.938 70V70.5H493.896V70V69.5H491.938V70ZM495.854 70V70.5H497.812V70V69.5H495.854V70ZM499.771 70V70.5H501.729V70V69.5H499.771V70ZM503.687 70V70.5H505.646V70V69.5H503.687V70ZM507.604 70V70.5H509.562V70V69.5H507.604V70ZM511.521 70V70.5H513.479V70V69.5H511.521V70ZM515.438 70V70.5H517.396V70V69.5H515.438V70ZM519.354 70V70.5H521.313V70V69.5H519.354V70ZM523.271 70V70.5H525.229V70V69.5H523.271V70ZM527.188 70V70.5H529.146V70V69.5H527.188V70ZM531.104 70V70.5H533.062V70V69.5H531.104V70ZM535.021 70V70.5H536.979V70V69.5H535.021V70ZM538.937 70V70.5H540.896V70V69.5H538.937V70ZM542.854 70V70.5H544.812V70V69.5H542.854V70ZM546.771 70V70.5H548.729V70V69.5H546.771V70ZM550.687 70V70.5H552.646V70V69.5H550.687V70ZM554.604 70V70.5H556.562V70V69.5H554.604V70ZM558.521 70V70.5H560.479V70V69.5H558.521V70ZM562.437 70V70.5H564.396V70V69.5H562.437V70ZM566.354 70V70.5H568.312V70V69.5H566.354V70ZM570.271 70V70.5H572.229V70V69.5H570.271V70ZM574.188 70V70.5H576.146V70V69.5H574.188V70ZM578.104 70V70.5H580.063V70V69.5H578.104V70ZM582.021 70V70.5H583V70V69.5H582.021V70Z" fill="#D2D2D2"/>
<path d="M486.333 54C486.333 55.4728 487.527 56.6667 489 56.6667C490.473 56.6667 491.667 55.4728 491.667 54C491.667 52.5272 490.473 51.3333 489 51.3333C487.527 51.3333 486.333 52.5272 486.333 54ZM545.354 54.3536C545.549 54.1583 545.549 53.8417 545.354 53.6464L542.172 50.4645C541.976 50.2692 541.66 50.2692 541.464 50.4645C541.269 50.6597 541.269 50.9763 541.464 51.1716L544.293 54L541.464 56.8284C541.269 57.0237 541.269 57.3403 541.464 57.5355C541.66 57.7308 541.976 57.7308 542.172 57.5355L545.354 54.3536ZM489 54V54.5H490V54V53.5H489V54ZM492 54V54.5H494V54V53.5H492V54ZM496 54V54.5H498V54V53.5H496V54ZM500 54V54.5H502V54V53.5H500V54ZM504 54V54.5H506V54V53.5H504V54ZM508 54V54.5H510V54V53.5H508V54ZM512 54V54.5H514V54V53.5H512V54ZM516 54V54.5H518V54V53.5H516V54ZM520 54V54.5H522V54V53.5H520V54ZM524 54V54.5H526V54V53.5H524V54ZM528 54V54.5H530V54V53.5H528V54ZM532 54V54.5H534V54V53.5H532V54ZM536 54V54.5H538V54V53.5H536V54ZM540 54V54.5H542V54V53.5H540V54ZM544 54V54.5H545V54V53.5H544V54Z" fill="#D2D2D2"/>
<path d="M486.333 86C486.333 87.4728 487.527 88.6667 489 88.6667C490.473 88.6667 491.667 87.4728 491.667 86C491.667 84.5272 490.473 83.3333 489 83.3333C487.527 83.3333 486.333 84.5272 486.333 86ZM527.354 86.3536C527.549 86.1583 527.549 85.8417 527.354 85.6464L524.172 82.4645C523.976 82.2692 523.66 82.2692 523.464 82.4645C523.269 82.6597 523.269 82.9763 523.464 83.1716L526.293 86L523.464 88.8284C523.269 89.0237 523.269 89.3403 523.464 89.5355C523.66 89.7308 523.976 89.7308 524.172 89.5355L527.354 86.3536ZM489 86V86.5H489.95V86V85.5H489V86ZM491.85 86V86.5H493.75V86V85.5H491.85V86ZM495.65 86V86.5H497.55V86V85.5H495.65V86ZM499.45 86V86.5H501.35V86V85.5H499.45V86ZM503.25 86V86.5H505.15V86V85.5H503.25V86ZM507.05 86V86.5H508.95V86V85.5H507.05V86ZM510.85 86V86.5H512.75V86V85.5H510.85V86ZM514.65 86V86.5H516.55V86V85.5H514.65V86ZM518.45 86V86.5H520.35V86V85.5H518.45V86ZM522.25 86V86.5H524.15V86V85.5H522.25V86ZM526.05 86V86.5H527V86V85.5H526.05V86Z" fill="#D2D2D2"/>
<g filter="url(#filter0_d_5562_38053)">
<rect x="58" y="13" width="158" height="38" rx="8" fill="white"/>
</g>
<path d="M98.032 37V28.48H99.676L103.612 35.428V28.48H104.908V37H103.204L99.328 30.208V37H98.032ZM109.352 37.144C108.744 37.144 108.212 37.008 107.756 36.736C107.3 36.464 106.948 36.076 106.7 35.572C106.452 35.068 106.328 34.48 106.328 33.808C106.328 33.128 106.452 32.54 106.7 32.044C106.948 31.548 107.3 31.164 107.756 30.892C108.212 30.612 108.744 30.472 109.352 30.472C109.96 30.472 110.492 30.612 110.948 30.892C111.404 31.164 111.756 31.548 112.004 32.044C112.252 32.54 112.376 33.128 112.376 33.808C112.376 34.48 112.252 35.068 112.004 35.572C111.756 36.076 111.404 36.464 110.948 36.736C110.492 37.008 109.96 37.144 109.352 37.144ZM109.352 36.04C109.896 36.04 110.316 35.844 110.612 35.452C110.908 35.052 111.056 34.504 111.056 33.808C111.056 33.112 110.908 32.568 110.612 32.176C110.316 31.776 109.896 31.576 109.352 31.576C108.816 31.576 108.396 31.776 108.092 32.176C107.796 32.568 107.648 33.112 107.648 33.808C107.648 34.504 107.796 35.052 108.092 35.452C108.396 35.844 108.816 36.04 109.352 36.04ZM116.037 37L119.109 28.48H120.753L123.825 37H122.445L121.665 34.78H118.185L117.417 37H116.037ZM118.593 33.604H121.269L119.925 29.716L118.593 33.604ZM127.364 37.144C126.756 37.144 126.224 37.008 125.768 36.736C125.312 36.464 124.96 36.076 124.712 35.572C124.464 35.068 124.34 34.48 124.34 33.808C124.34 33.136 124.464 32.552 124.712 32.056C124.96 31.552 125.312 31.164 125.768 30.892C126.224 30.612 126.756 30.472 127.364 30.472C127.884 30.472 128.344 30.564 128.744 30.748C129.152 30.924 129.48 31.184 129.728 31.528C129.984 31.872 130.148 32.292 130.22 32.788L128.888 32.86C128.824 32.444 128.656 32.128 128.384 31.912C128.112 31.688 127.772 31.576 127.364 31.576C126.828 31.576 126.408 31.776 126.104 32.176C125.808 32.568 125.66 33.112 125.66 33.808C125.66 34.504 125.808 35.052 126.104 35.452C126.408 35.844 126.828 36.04 127.364 36.04C127.772 36.04 128.112 35.928 128.384 35.704C128.656 35.472 128.824 35.124 128.888 34.66L130.22 34.732C130.148 35.22 129.984 35.644 129.728 36.004C129.48 36.364 129.152 36.644 128.744 36.844C128.344 37.044 127.884 37.144 127.364 37.144ZM134.008 37.144C133.4 37.144 132.868 37.008 132.412 36.736C131.956 36.464 131.604 36.076 131.356 35.572C131.108 35.068 130.984 34.48 130.984 33.808C130.984 33.136 131.108 32.552 131.356 32.056C131.604 31.552 131.956 31.164 132.412 30.892C132.868 30.612 133.4 30.472 134.008 30.472C134.528 30.472 134.988 30.564 135.388 30.748C135.796 30.924 136.124 31.184 136.372 31.528C136.628 31.872 136.792 32.292 136.864 32.788L135.532 32.86C135.468 32.444 135.3 32.128 135.028 31.912C134.756 31.688 134.416 31.576 134.008 31.576C133.472 31.576 133.052 31.776 132.748 32.176C132.452 32.568 132.304 33.112 132.304 33.808C132.304 34.504 132.452 35.052 132.748 35.452C133.052 35.844 133.472 36.04 134.008 36.04C134.416 36.04 134.756 35.928 135.028 35.704C135.3 35.472 135.468 35.124 135.532 34.66L136.864 34.732C136.792 35.22 136.628 35.644 136.372 36.004C136.124 36.364 135.796 36.644 135.388 36.844C134.988 37.044 134.528 37.144 134.008 37.144ZM140.653 37.144C140.045 37.144 139.513 37.008 139.057 36.736C138.601 36.464 138.249 36.076 138.001 35.572C137.753 35.068 137.629 34.48 137.629 33.808C137.629 33.128 137.753 32.54 138.001 32.044C138.249 31.548 138.601 31.164 139.057 30.892C139.513 30.612 140.045 30.472 140.653 30.472C141.261 30.472 141.793 30.612 142.249 30.892C142.705 31.164 143.057 31.548 143.305 32.044C143.553 32.54 143.677 33.128 143.677 33.808C143.677 34.48 143.553 35.068 143.305 35.572C143.057 36.076 142.705 36.464 142.249 36.736C141.793 37.008 141.261 37.144 140.653 37.144ZM140.653 36.04C141.197 36.04 141.617 35.844 141.913 35.452C142.209 35.052 142.357 34.504 142.357 33.808C142.357 33.112 142.209 32.568 141.913 32.176C141.617 31.776 141.197 31.576 140.653 31.576C140.117 31.576 139.697 31.776 139.393 32.176C139.097 32.568 138.949 33.112 138.949 33.808C138.949 34.504 139.097 35.052 139.393 35.452C139.697 35.844 140.117 36.04 140.653 36.04ZM147.062 37.144C146.423 37.144 145.911 36.932 145.527 36.508C145.151 36.076 144.963 35.48 144.963 34.72V30.616H146.235V34.396C146.235 34.972 146.335 35.396 146.535 35.668C146.735 35.94 147.039 36.076 147.447 36.076C147.911 36.076 148.271 35.928 148.527 35.632C148.791 35.328 148.923 34.904 148.923 34.36V30.616H150.195V37H149.007L148.983 35.332L149.163 35.404C149.051 35.964 148.815 36.396 148.455 36.7C148.095 36.996 147.631 37.144 147.062 37.144ZM151.994 37V30.616H153.158L153.206 32.32L153.05 32.236C153.122 31.82 153.258 31.484 153.458 31.228C153.658 30.972 153.902 30.784 154.19 30.664C154.478 30.536 154.79 30.472 155.126 30.472C155.606 30.472 156.002 30.58 156.314 30.796C156.634 31.004 156.874 31.292 157.034 31.66C157.202 32.02 157.286 32.432 157.286 32.896V37H156.014V33.28C156.014 32.904 155.974 32.588 155.894 32.332C155.814 32.076 155.682 31.88 155.498 31.744C155.314 31.608 155.074 31.54 154.778 31.54C154.33 31.54 153.966 31.688 153.686 31.984C153.406 32.28 153.266 32.712 153.266 33.28V37H151.994ZM161.075 37C160.467 37 160.019 36.86 159.731 36.58C159.443 36.3 159.299 35.864 159.299 35.272V29.116H160.571V35.176C160.571 35.472 160.635 35.676 160.763 35.788C160.891 35.9 161.087 35.956 161.351 35.956H162.263V37H161.075ZM158.327 31.66V30.616H162.263V31.66H158.327ZM165.806 37L168.878 28.48H170.522L173.594 37H172.214L171.434 34.78H167.954L167.186 37H165.806ZM168.362 33.604H171.038L169.694 29.716L168.362 33.604ZM177.662 37.144C177.222 37.144 176.83 37.048 176.486 36.856C176.15 36.656 175.89 36.384 175.706 36.04L175.67 37H174.482V28.48H175.754V31.516C175.922 31.236 176.17 30.992 176.498 30.784C176.834 30.576 177.222 30.472 177.662 30.472C178.214 30.472 178.694 30.608 179.102 30.88C179.51 31.152 179.822 31.54 180.038 32.044C180.262 32.54 180.374 33.128 180.374 33.808C180.374 34.488 180.262 35.08 180.038 35.584C179.822 36.08 179.51 36.464 179.102 36.736C178.694 37.008 178.214 37.144 177.662 37.144ZM177.458 36.04C177.946 36.04 178.334 35.844 178.622 35.452C178.91 35.052 179.054 34.504 179.054 33.808C179.054 33.112 178.91 32.568 178.622 32.176C178.334 31.776 177.95 31.576 177.47 31.576C177.11 31.576 176.802 31.664 176.546 31.84C176.29 32.016 176.094 32.272 175.958 32.608C175.822 32.936 175.754 33.336 175.754 33.808C175.754 34.264 175.822 34.66 175.958 34.996C176.094 35.332 176.29 35.592 176.546 35.776C176.802 35.952 177.106 36.04 177.458 36.04ZM183.766 37.144C183.126 37.144 182.614 36.932 182.23 36.508C181.854 36.076 181.666 35.48 181.666 34.72V30.616H182.938V34.396C182.938 34.972 183.038 35.396 183.238 35.668C183.438 35.94 183.742 36.076 184.15 36.076C184.614 36.076 184.974 35.928 185.23 35.632C185.494 35.328 185.626 34.904 185.626 34.36V30.616H186.898V37H185.71L185.686 35.332L185.866 35.404C185.754 35.964 185.518 36.396 185.158 36.7C184.798 36.996 184.334 37.144 183.766 37.144ZM191.04 37.144C190.44 37.144 189.932 37.052 189.516 36.868C189.108 36.684 188.792 36.432 188.568 36.112C188.344 35.784 188.216 35.408 188.184 34.984L189.492 34.924C189.556 35.276 189.708 35.556 189.948 35.764C190.188 35.972 190.552 36.076 191.04 36.076C191.44 36.076 191.756 36.012 191.988 35.884C192.22 35.756 192.336 35.552 192.336 35.272C192.336 35.12 192.296 34.992 192.216 34.888C192.144 34.776 192 34.684 191.784 34.612C191.568 34.532 191.248 34.456 190.824 34.384C190.192 34.264 189.696 34.124 189.336 33.964C188.976 33.804 188.72 33.6 188.568 33.352C188.416 33.104 188.34 32.804 188.34 32.452C188.34 31.868 188.556 31.392 188.988 31.024C189.428 30.656 190.06 30.472 190.884 30.472C191.436 30.472 191.9 30.568 192.276 30.76C192.652 30.944 192.944 31.196 193.152 31.516C193.368 31.828 193.504 32.18 193.56 32.572L192.252 32.644C192.212 32.42 192.132 32.228 192.012 32.068C191.9 31.9 191.748 31.772 191.556 31.684C191.364 31.588 191.136 31.54 190.872 31.54C190.464 31.54 190.16 31.62 189.96 31.78C189.76 31.94 189.66 32.148 189.66 32.404C189.66 32.596 189.704 32.752 189.792 32.872C189.888 32.992 190.04 33.092 190.248 33.172C190.456 33.244 190.732 33.308 191.076 33.364C191.74 33.476 192.26 33.616 192.636 33.784C193.012 33.944 193.276 34.144 193.428 34.384C193.58 34.624 193.656 34.916 193.656 35.26C193.656 35.66 193.544 36 193.32 36.28C193.096 36.56 192.788 36.776 192.396 36.928C192.004 37.072 191.552 37.144 191.04 37.144ZM197.571 37.144C196.947 37.144 196.407 37.008 195.951 36.736C195.503 36.464 195.155 36.076 194.907 35.572C194.667 35.068 194.547 34.48 194.547 33.808C194.547 33.136 194.667 32.552 194.907 32.056C195.155 31.552 195.503 31.164 195.951 30.892C196.399 30.612 196.927 30.472 197.535 30.472C198.111 30.472 198.619 30.608 199.059 30.88C199.499 31.144 199.839 31.528 200.079 32.032C200.327 32.536 200.451 33.144 200.451 33.856V34.18H195.867C195.899 34.804 196.063 35.272 196.359 35.584C196.663 35.896 197.071 36.052 197.583 36.052C197.959 36.052 198.271 35.964 198.519 35.788C198.767 35.612 198.939 35.376 199.035 35.08L200.355 35.164C200.187 35.756 199.855 36.236 199.359 36.604C198.871 36.964 198.275 37.144 197.571 37.144ZM195.867 33.22H199.107C199.067 32.652 198.903 32.232 198.615 31.96C198.335 31.688 197.975 31.552 197.535 31.552C197.079 31.552 196.703 31.696 196.407 31.984C196.119 32.264 195.939 32.676 195.867 33.22Z" fill="#D2D2D2"/>
<g clip-path="url(#clip0_5562_38053)">
<path d="M78 34.25L79.5 35.75L82.5 32.75" stroke="#FFC506" stroke-width="1.5" stroke-linecap="round" stroke-linejoin="round"/>
<path d="M84 29H76.5C75.6716 29 75 29.6716 75 30.5V38C75 38.8284 75.6716 39.5 76.5 39.5H84C84.8284 39.5 85.5 38.8284 85.5 38V30.5C85.5 29.6716 84.8284 29 84 29Z" stroke="#FFC506" stroke-width="1.5" stroke-linecap="round" stroke-linejoin="round"/>
<path d="M72 35C71.175 35 70.5 34.325 70.5 33.5V26C70.5 25.175 71.175 24.5 72 24.5H79.5C80.325 24.5 81 25.175 81 26" stroke="#FFC506" stroke-width="1.5" stroke-linecap="round" stroke-linejoin="round"/>
</g>
<path d="M48.3333 33C48.3333 34.4728 49.5272 35.6667 51 35.6667C52.4728 35.6667 53.6667 34.4728 53.6667 33C53.6667 31.5272 52.4728 30.3333 51 30.3333C49.5272 30.3333 48.3333 31.5272 48.3333 33ZM21 33V33.5H21.9375V33V32.5H21V33ZM23.8125 33V33.5H25.6875V33V32.5H23.8125V33ZM27.5625 33V33.5H29.4375V33V32.5H27.5625V33ZM31.3125 33V33.5H33.1875V33V32.5H31.3125V33ZM35.0625 33V33.5H36.9375V33V32.5H35.0625V33ZM38.8125 33V33.5H40.6875V33V32.5H38.8125V33ZM42.5625 33V33.5H44.4375V33V32.5H42.5625V33ZM46.3125 33V33.5H48.1875V33V32.5H46.3125V33ZM50.0625 33V33.5H51V33V32.5H50.0625V33Z" fill="#D2D2D2"/>
<path d="M220.333 33C220.333 34.4728 221.527 35.6667 223 35.6667C224.473 35.6667 225.667 34.4728 225.667 33C225.667 31.5272 224.473 30.3333 223 30.3333C221.527 30.3333 220.333 31.5272 220.333 33ZM380.333 54C380.333 55.4728 381.527 56.6667 383 56.6667C384.473 56.6667 385.667 55.4728 385.667 54C385.667 52.5272 384.473 51.3333 383 51.3333C381.527 51.3333 380.333 52.5272 380.333 54ZM223 33V33.5H224.022V33V32.5H223V33ZM226.066 33V33.5H228.109V33V32.5H226.066V33ZM230.153 33V33.5H232.197V33V32.5H230.153V33ZM234.24 33V33.5H236.284V33V32.5H234.24V33ZM238.328 33V33.5H240.371V33V32.5H238.328V33ZM242.415 33V33.5H244.459V33V32.5H242.415V33ZM246.502 33V33.5H248.546V33V32.5H246.502V33ZM250.59 33V33.5H252.634V33V32.5H250.59V33ZM254.677 33V33.5H256.721V33V32.5H254.677V33ZM258.765 33V33.5H260.808V33V32.5H258.765V33ZM262.852 33V33.5H264.896V33V32.5H262.852V33ZM266.939 33V33.5H268.983V33V32.5H266.939V33ZM271.027 33V33.5H273.07V33V32.5H271.027V33ZM275.114 33V33.5H276.136V33V32.5H275.114V33ZM276.136 33V33.5C276.467 33.5 276.794 33.5161 277.117 33.5475L277.166 33.0498L277.214 32.5522C276.859 32.5177 276.5 32.5 276.136 32.5V33ZM279.185 33.4495L279.04 33.9281C279.672 34.1196 280.278 34.3721 280.85 34.6787L281.087 34.238L281.323 33.7972C280.693 33.4598 280.026 33.1819 279.33 32.971L279.185 33.4495ZM282.797 35.3831L282.48 35.7694C282.986 36.1853 283.451 36.65 283.867 37.1562L284.253 36.8388L284.639 36.5214C284.182 35.9648 283.671 35.454 283.115 34.9968L282.797 35.3831ZM285.398 38.5495L284.957 38.7855C285.264 39.3581 285.516 39.9638 285.708 40.596L286.186 40.451L286.665 40.306C286.454 39.61 286.176 38.9433 285.839 38.3134L285.398 38.5495ZM286.586 42.4704L286.088 42.5189C286.12 42.8415 286.136 43.1688 286.136 43.5H286.636H287.136C287.136 43.1364 287.118 42.7768 287.084 42.422L286.586 42.4704ZM286.636 43.5H286.136C286.136 43.8636 286.154 44.2232 286.188 44.578L286.686 44.5296L287.183 44.4811C287.152 44.1585 287.136 43.8312 287.136 43.5H286.636ZM287.086 46.549L286.607 46.694C286.818 47.39 287.096 48.0567 287.433 48.6866L287.874 48.4505L288.315 48.2145C288.008 47.6419 287.756 47.0362 287.564 46.404L287.086 46.549ZM289.019 50.1612L288.633 50.4786C289.09 51.0352 289.601 51.546 290.157 52.0032L290.475 51.6169L290.792 51.2306C290.286 50.8147 289.821 50.35 289.405 49.8438L289.019 50.1612ZM292.185 52.762L291.949 53.2028C292.579 53.5402 293.246 53.8181 293.942 54.029L294.087 53.5505L294.232 53.0719C293.6 52.8804 292.994 52.6279 292.422 52.3213L292.185 52.762ZM296.106 53.9502L296.058 54.4478C296.413 54.4823 296.772 54.5 297.136 54.5V54V53.5C296.805 53.5 296.477 53.4839 296.155 53.4525L296.106 53.9502ZM297.136 54V54.5H298.158V54V53.5H297.136V54ZM300.203 54V54.5H302.247V54V53.5H300.203V54ZM304.291 54V54.5H306.336V54V53.5H304.291V54ZM308.38 54V54.5H310.424V54V53.5H308.38V54ZM312.469 54V54.5H314.513V54V53.5H312.469V54ZM316.558 54V54.5H318.602V54V53.5H316.558V54ZM320.646 54V54.5H322.691V54V53.5H320.646V54ZM324.735 54V54.5H326.78V54V53.5H324.735V54ZM328.824 54V54.5H330.868V54V53.5H328.824V54ZM332.913 54V54.5H334.957V54V53.5H332.913V54ZM337.001 54V54.5H339.046V54V53.5H337.001V54ZM341.09 54V54.5H343.135V54V53.5H341.09V54ZM345.179 54V54.5H347.223V54V53.5H345.179V54ZM349.268 54V54.5H351.312V54V53.5H349.268V54ZM353.356 54V54.5H355.401V54V53.5H353.356V54ZM357.445 54V54.5H359.49V54V53.5H357.445V54ZM361.534 54V54.5H363.578V54V53.5H361.534V54ZM365.623 54V54.5H367.667V54V53.5H365.623V54ZM369.712 54V54.5H371.756V54V53.5H369.712V54ZM373.8 54V54.5H375.845V54V53.5H373.8V54ZM377.889 54V54.5H379.933V54V53.5H377.889V54ZM381.978 54V54.5H383V54V53.5H381.978V54Z" fill="#D2D2D2"/>
<g filter="url(#filter1_d_5562_38053)">
<rect x="56" y="111" width="170" height="38" rx="8" fill="white"/>
</g>
<path d="M99.032 134V125.48H100.676L104.612 132.428V125.48H105.908V134H104.204L100.328 127.208V134H99.032ZM110.352 134.144C109.744 134.144 109.212 134.008 108.756 133.736C108.3 133.464 107.948 133.076 107.7 132.572C107.452 132.068 107.328 131.48 107.328 130.808C107.328 130.128 107.452 129.54 107.7 129.044C107.948 128.548 108.3 128.164 108.756 127.892C109.212 127.612 109.744 127.472 110.352 127.472C110.96 127.472 111.492 127.612 111.948 127.892C112.404 128.164 112.756 128.548 113.004 129.044C113.252 129.54 113.376 130.128 113.376 130.808C113.376 131.48 113.252 132.068 113.004 132.572C112.756 133.076 112.404 133.464 111.948 133.736C111.492 134.008 110.96 134.144 110.352 134.144ZM110.352 133.04C110.896 133.04 111.316 132.844 111.612 132.452C111.908 132.052 112.056 131.504 112.056 130.808C112.056 130.112 111.908 129.568 111.612 129.176C111.316 128.776 110.896 128.576 110.352 128.576C109.816 128.576 109.396 128.776 109.092 129.176C108.796 129.568 108.648 130.112 108.648 130.808C108.648 131.504 108.796 132.052 109.092 132.452C109.396 132.844 109.816 133.04 110.352 133.04ZM117.829 134V125.48H119.473L123.409 132.428V125.48H124.705V134H123.001L119.125 127.208V134H117.829ZM129.149 134.144C128.525 134.144 127.985 134.008 127.529 133.736C127.081 133.464 126.733 133.076 126.485 132.572C126.245 132.068 126.125 131.48 126.125 130.808C126.125 130.136 126.245 129.552 126.485 129.056C126.733 128.552 127.081 128.164 127.529 127.892C127.977 127.612 128.505 127.472 129.113 127.472C129.689 127.472 130.197 127.608 130.637 127.88C131.077 128.144 131.417 128.528 131.657 129.032C131.905 129.536 132.029 130.144 132.029 130.856V131.18H127.445C127.477 131.804 127.641 132.272 127.937 132.584C128.241 132.896 128.649 133.052 129.161 133.052C129.537 133.052 129.849 132.964 130.097 132.788C130.345 132.612 130.517 132.376 130.613 132.08L131.933 132.164C131.765 132.756 131.433 133.236 130.937 133.604C130.449 133.964 129.853 134.144 129.149 134.144ZM127.445 130.22H130.685C130.645 129.652 130.481 129.232 130.193 128.96C129.913 128.688 129.553 128.552 129.113 128.552C128.657 128.552 128.281 128.696 127.985 128.984C127.697 129.264 127.517 129.676 127.445 130.22ZM135.532 134C134.924 134 134.476 133.86 134.188 133.58C133.9 133.3 133.756 132.864 133.756 132.272V126.116H135.028V132.176C135.028 132.472 135.092 132.676 135.22 132.788C135.348 132.9 135.544 132.956 135.808 132.956H136.72V134H135.532ZM132.784 128.66V127.616H136.72V128.66H132.784ZM139.185 134L137.241 127.616H138.573L139.941 132.608L141.345 127.616H142.545L143.949 132.608L145.329 127.616H146.661L144.717 134H143.289L141.945 129.44L140.601 134H139.185ZM150.126 134.144C149.518 134.144 148.986 134.008 148.53 133.736C148.074 133.464 147.722 133.076 147.474 132.572C147.226 132.068 147.102 131.48 147.102 130.808C147.102 130.128 147.226 129.54 147.474 129.044C147.722 128.548 148.074 128.164 148.53 127.892C148.986 127.612 149.518 127.472 150.126 127.472C150.734 127.472 151.266 127.612 151.722 127.892C152.178 128.164 152.53 128.548 152.778 129.044C153.026 129.54 153.15 130.128 153.15 130.808C153.15 131.48 153.026 132.068 152.778 132.572C152.53 133.076 152.178 133.464 151.722 133.736C151.266 134.008 150.734 134.144 150.126 134.144ZM150.126 133.04C150.67 133.04 151.09 132.844 151.386 132.452C151.682 132.052 151.83 131.504 151.83 130.808C151.83 130.112 151.682 129.568 151.386 129.176C151.09 128.776 150.67 128.576 150.126 128.576C149.59 128.576 149.17 128.776 148.866 129.176C148.57 129.568 148.422 130.112 148.422 130.808C148.422 131.504 148.57 132.052 148.866 132.452C149.17 132.844 149.59 133.04 150.126 133.04ZM154.435 134V127.616H155.599L155.647 129.308L155.539 129.272C155.627 128.696 155.803 128.276 156.067 128.012C156.339 127.748 156.703 127.616 157.159 127.616H157.771V128.756H157.159C156.839 128.756 156.571 128.808 156.355 128.912C156.139 129.016 155.975 129.176 155.863 129.392C155.759 129.608 155.707 129.888 155.707 130.232V134H154.435ZM158.818 134V125.48H160.09V130.772L162.958 127.616H164.566L162.07 130.304L164.662 134H163.198L161.218 131.096L160.09 132.296V134H158.818ZM168.388 134L171.46 125.48H173.104L176.176 134H174.796L174.016 131.78H170.536L169.768 134H168.388ZM170.944 130.604H173.62L172.276 126.716L170.944 130.604ZM179.008 134C178.4 134 177.952 133.86 177.664 133.58C177.376 133.3 177.232 132.864 177.232 132.272V126.116H178.504V132.176C178.504 132.472 178.568 132.676 178.696 132.788C178.824 132.9 179.02 132.956 179.284 132.956H180.196V134H179.008ZM176.26 128.66V127.616H180.196V128.66H176.26ZM182.884 134C182.276 134 181.828 133.86 181.54 133.58C181.252 133.3 181.108 132.864 181.108 132.272V126.116H182.38V132.176C182.38 132.472 182.444 132.676 182.572 132.788C182.7 132.9 182.896 132.956 183.16 132.956H184.072V134H182.884ZM180.136 128.66V127.616H184.072V128.66H180.136ZM187.032 134.144C186.368 134.144 185.836 133.992 185.436 133.688C185.044 133.384 184.848 132.956 184.848 132.404C184.848 131.852 185.012 131.424 185.34 131.12C185.676 130.808 186.192 130.584 186.888 130.448L189.084 130.028C189.084 129.532 188.968 129.164 188.736 128.924C188.504 128.676 188.16 128.552 187.704 128.552C187.296 128.552 186.976 128.644 186.744 128.828C186.512 129.004 186.352 129.268 186.264 129.62L184.956 129.536C185.076 128.896 185.372 128.392 185.844 128.024C186.324 127.656 186.944 127.472 187.704 127.472C188.568 127.472 189.224 127.704 189.672 128.168C190.128 128.624 190.356 129.268 190.356 130.1V132.584C190.356 132.736 190.38 132.844 190.428 132.908C190.484 132.964 190.572 132.992 190.692 132.992H190.92V134C190.88 134.008 190.816 134.016 190.728 134.024C190.64 134.032 190.548 134.036 190.452 134.036C190.18 134.036 189.944 133.992 189.744 133.904C189.552 133.816 189.408 133.672 189.312 133.472C189.216 133.264 189.168 132.988 189.168 132.644L189.3 132.704C189.236 132.984 189.096 133.232 188.88 133.448C188.672 133.664 188.404 133.836 188.076 133.964C187.756 134.084 187.408 134.144 187.032 134.144ZM187.236 133.136C187.62 133.136 187.948 133.064 188.22 132.92C188.492 132.768 188.704 132.56 188.856 132.296C189.008 132.032 189.084 131.732 189.084 131.396V130.988L187.212 131.348C186.828 131.42 186.556 131.536 186.396 131.696C186.244 131.848 186.168 132.044 186.168 132.284C186.168 132.556 186.26 132.768 186.444 132.92C186.636 133.064 186.9 133.136 187.236 133.136ZM194.575 134.144C193.967 134.144 193.435 134.008 192.979 133.736C192.523 133.464 192.171 133.076 191.923 132.572C191.675 132.068 191.551 131.48 191.551 130.808C191.551 130.136 191.675 129.552 191.923 129.056C192.171 128.552 192.523 128.164 192.979 127.892C193.435 127.612 193.967 127.472 194.575 127.472C195.095 127.472 195.555 127.564 195.955 127.748C196.363 127.924 196.691 128.184 196.939 128.528C197.195 128.872 197.359 129.292 197.431 129.788L196.099 129.86C196.035 129.444 195.867 129.128 195.595 128.912C195.323 128.688 194.983 128.576 194.575 128.576C194.039 128.576 193.619 128.776 193.315 129.176C193.019 129.568 192.871 130.112 192.871 130.808C192.871 131.504 193.019 132.052 193.315 132.452C193.619 132.844 194.039 133.04 194.575 133.04C194.983 133.04 195.323 132.928 195.595 132.704C195.867 132.472 196.035 132.124 196.099 131.66L197.431 131.732C197.359 132.22 197.195 132.644 196.939 133.004C196.691 133.364 196.363 133.644 195.955 133.844C195.555 134.044 195.095 134.144 194.575 134.144ZM198.591 134V125.48H199.863V130.772L202.731 127.616H204.339L201.843 130.304L204.435 134H202.971L200.991 131.096L199.863 132.296V134H198.591ZM207.684 134.144C207.084 134.144 206.576 134.052 206.16 133.868C205.752 133.684 205.436 133.432 205.212 133.112C204.988 132.784 204.86 132.408 204.828 131.984L206.136 131.924C206.2 132.276 206.352 132.556 206.592 132.764C206.832 132.972 207.196 133.076 207.684 133.076C208.084 133.076 208.4 133.012 208.632 132.884C208.864 132.756 208.98 132.552 208.98 132.272C208.98 132.12 208.94 131.992 208.86 131.888C208.788 131.776 208.644 131.684 208.428 131.612C208.212 131.532 207.892 131.456 207.468 131.384C206.836 131.264 206.34 131.124 205.98 130.964C205.62 130.804 205.364 130.6 205.212 130.352C205.06 130.104 204.984 129.804 204.984 129.452C204.984 128.868 205.2 128.392 205.632 128.024C206.072 127.656 206.704 127.472 207.528 127.472C208.08 127.472 208.544 127.568 208.92 127.76C209.296 127.944 209.588 128.196 209.796 128.516C210.012 128.828 210.148 129.18 210.204 129.572L208.896 129.644C208.856 129.42 208.776 129.228 208.656 129.068C208.544 128.9 208.392 128.772 208.2 128.684C208.008 128.588 207.78 128.54 207.516 128.54C207.108 128.54 206.804 128.62 206.604 128.78C206.404 128.94 206.304 129.148 206.304 129.404C206.304 129.596 206.348 129.752 206.436 129.872C206.532 129.992 206.684 130.092 206.892 130.172C207.1 130.244 207.376 130.308 207.72 130.364C208.384 130.476 208.904 130.616 209.28 130.784C209.656 130.944 209.92 131.144 210.072 131.384C210.224 131.624 210.3 131.916 210.3 132.26C210.3 132.66 210.188 133 209.964 133.28C209.74 133.56 209.432 133.776 209.04 133.928C208.648 134.072 208.196 134.144 207.684 134.144Z" fill="#D2D2D2"/>
<path d="M75.5 131.5L76.5875 129.325C76.7127 129.076 76.9046 128.868 77.1417 128.722C77.3788 128.576 77.6517 128.499 77.93 128.5H86M86 128.5C86.2291 128.5 86.4553 128.552 86.6612 128.652C86.8671 128.753 87.0472 128.899 87.1877 129.08C87.3282 129.261 87.4253 129.472 87.4716 129.697C87.518 129.921 87.5123 130.153 87.455 130.375L86.2925 134.875C86.2093 135.197 86.0211 135.483 85.7576 135.687C85.4942 135.89 85.1705 136.001 84.8375 136H74C73.6022 136 73.2206 135.842 72.9393 135.561C72.658 135.279 72.5 134.898 72.5 134.5V124.75C72.5 123.925 73.175 123.25 74 123.25H76.9475C77.1946 123.251 77.4375 123.314 77.6547 123.431C77.8719 123.549 78.0566 123.719 78.1925 123.925L78.8075 124.825C78.9434 125.031 79.1281 125.201 79.3453 125.319C79.5625 125.436 79.8054 125.499 80.0525 125.5H84.5C84.8978 125.5 85.2794 125.658 85.5607 125.939C85.842 126.221 86 126.602 86 127V128.5Z" stroke="#936E80" stroke-width="1.5" stroke-linecap="round" stroke-linejoin="round"/>
<path d="M81.5 133C81.9142 133 82.25 132.664 82.25 132.25C82.25 131.836 81.9142 131.5 81.5 131.5C81.0858 131.5 80.75 131.836 80.75 132.25C80.75 132.664 81.0858 133 81.5 133Z" stroke="#936E80" stroke-width="1.5" stroke-linecap="round" stroke-linejoin="round"/>
<path d="M48.3333 130C48.3333 131.473 49.5272 132.667 51 132.667C52.4728 132.667 53.6667 131.473 53.6667 130C53.6667 128.527 52.4728 127.333 51 127.333C49.5272 127.333 48.3333 128.527 48.3333 130ZM21 130V130.5H21.9375V130V129.5H21V130ZM23.8125 130V130.5H25.6875V130V129.5H23.8125V130ZM27.5625 130V130.5H29.4375V130V129.5H27.5625V130ZM31.3125 130V130.5H33.1875V130V129.5H31.3125V130ZM35.0625 130V130.5H36.9375V130V129.5H35.0625V130ZM38.8125 130V130.5H40.6875V130V129.5H38.8125V130ZM42.5625 130V130.5H44.4375V130V129.5H42.5625V130ZM46.3125 130V130.5H48.1875V130V129.5H46.3125V130ZM50.0625 130V130.5H51V130V129.5H50.0625V130Z" fill="#D2D2D2"/>
<path d="M230.333 130C230.333 128.527 231.527 127.333 233 127.333C234.473 127.333 235.667 128.527 235.667 130C235.667 131.473 234.473 132.667 233 132.667C231.527 132.667 230.333 131.473 230.333 130ZM380.333 86C380.333 84.5272 381.527 83.3333 383 83.3333C384.473 83.3333 385.667 84.5272 385.667 86C385.667 87.4728 384.473 88.6667 383 88.6667C381.527 88.6667 380.333 87.4728 380.333 86ZM233 130V129.5H234.022V130V130.5H233V130ZM236.067 130V129.5H238.112V130V130.5H236.067V130ZM240.157 130V129.5H242.202V130V130.5H240.157V130ZM244.247 130V129.5H246.292V130V130.5H244.247V130ZM248.337 130V129.5H250.382V130V130.5H248.337V130ZM252.427 130V129.5H254.472V130V130.5H252.427V130ZM256.517 130V129.5H258.561V130V130.5H256.517V130ZM260.606 130V129.5H262.651V130V130.5H260.606V130ZM264.696 130V129.5H266.741V130V130.5H264.696V130ZM268.786 130V129.5H270.831V130V130.5H268.786V130ZM272.876 130V129.5H274.921V130V130.5H272.876V130ZM276.966 130V129.5H279.011V130V130.5H276.966V130ZM281.055 130V129.5H283.1V130V130.5H281.055V130ZM285.145 130V129.5H287.19V130V130.5H285.145V130ZM289.235 130V129.5H291.28V130V130.5H289.235V130ZM293.325 130V129.5H294.347V130V130.5H293.325V130ZM294.347 130V129.5C294.689 129.5 295.027 129.489 295.363 129.467L295.395 129.966L295.427 130.465C295.07 130.488 294.71 130.5 294.347 130.5V130ZM297.47 129.695L297.373 129.205C298.042 129.073 298.696 128.897 299.332 128.681L299.492 129.155L299.653 129.628C298.976 129.858 298.28 130.045 297.567 130.186L297.47 129.695ZM301.426 128.353L301.204 127.905C301.813 127.604 302.399 127.265 302.959 126.89L303.237 127.305L303.515 127.721C302.919 128.12 302.295 128.481 301.647 128.801L301.426 128.353ZM304.897 126.03L304.567 125.654C305.076 125.207 305.555 124.728 306.001 124.22L306.377 124.55L306.753 124.879C306.278 125.421 305.768 125.93 305.227 126.405L304.897 126.03ZM307.652 122.89L307.237 122.612C307.612 122.051 307.952 121.465 308.252 120.857L308.701 121.078L309.149 121.3C308.829 121.948 308.467 122.572 308.068 123.168L307.652 122.89ZM309.502 119.145L309.029 118.984C309.244 118.349 309.42 117.695 309.552 117.026L310.043 117.123L310.533 117.22C310.392 117.932 310.205 118.629 309.976 119.306L309.502 119.145ZM310.314 115.047L309.815 115.015C309.836 114.68 309.847 114.341 309.847 114H310.347H310.847C310.847 114.363 310.836 114.723 310.813 115.08L310.314 115.047ZM310.347 114H309.847V112.5H310.347H310.847V114H310.347ZM310.347 109.5H309.847V108H310.347H310.847V109.5H310.347ZM310.347 108H309.847V107.25H310.347H310.847V108H310.347ZM310.347 105.75H309.847V104.25H310.347H310.847V105.75H310.347ZM310.347 102.75H309.847V102H310.347H310.847V102.75H310.347ZM310.347 102H309.847C309.847 101.637 309.859 101.277 309.882 100.92L310.381 100.953L310.88 100.985C310.858 101.32 310.847 101.659 310.847 102H310.347ZM310.652 98.8774L310.161 98.7804C310.302 98.0675 310.489 97.3711 310.719 96.6944L311.193 96.8551L311.666 97.0158C311.45 97.6511 311.275 98.305 311.142 98.9744L310.652 98.8774ZM311.994 94.9218L311.546 94.7004C311.866 94.0523 312.228 93.4284 312.627 92.832L313.042 93.1101L313.458 93.3883C313.083 93.9486 312.743 94.5347 312.442 95.1433L311.994 94.9218ZM314.318 91.4504L313.942 91.1206C314.417 90.5794 314.927 90.0695 315.468 89.5946L315.798 89.9703L316.128 90.3461C315.619 90.7925 315.14 91.2716 314.694 91.7802L314.318 91.4504ZM317.458 88.695L317.179 88.2795C317.776 87.8802 318.4 87.5187 319.048 87.1985L319.269 87.6468L319.491 88.0951C318.882 88.3958 318.296 88.7353 317.736 89.1104L317.458 88.695ZM321.202 86.8452L321.042 86.3717C321.719 86.142 322.415 85.9551 323.128 85.8141L323.225 86.3045L323.322 86.795C322.652 86.9275 321.999 87.103 321.363 87.3186L321.202 86.8452ZM325.3 86.0337L325.268 85.5348C325.625 85.5117 325.985 85.5 326.347 85.5V86V86.5C326.006 86.5 325.668 86.511 325.332 86.5327L325.3 86.0337ZM326.347 86V85.5H327.359V86V86.5H326.347V86ZM329.382 86V85.5H331.406V86V86.5H329.382V86ZM333.429 86V85.5H335.452V86V86.5H333.429V86ZM337.476 86V85.5H339.499V86V86.5H337.476V86ZM341.522 86V85.5H343.546V86V86.5H341.522V86ZM345.569 86V85.5H347.592V86V86.5H345.569V86ZM349.615 86V85.5H351.639V86V86.5H349.615V86ZM353.662 86V85.5H355.685V86V86.5H353.662V86ZM357.709 86V85.5H359.732V86V86.5H357.709V86ZM361.755 86V85.5H363.779V86V86.5H361.755V86ZM365.802 86V85.5H367.825V86V86.5H365.802V86ZM369.849 86V85.5H371.872V86V86.5H369.849V86ZM373.895 86V85.5H375.918V86V86.5H373.895V86ZM377.942 86V85.5H379.965V86V86.5H377.942V86ZM381.988 86V85.5H383V86V86.5H381.988V86Z" fill="#D2D2D2"/>
<rect x="17" y="62" width="163" height="38" rx="8" fill="#248DCD"/>
<path d="M57.032 85V76.48H58.676L62.612 83.428V76.48H63.908V85H62.204L58.328 78.208V85H57.032ZM68.3522 85.144C67.7442 85.144 67.2122 85.008 66.7562 84.736C66.3002 84.464 65.9482 84.076 65.7002 83.572C65.4522 83.068 65.3282 82.48 65.3282 81.808C65.3282 81.128 65.4522 80.54 65.7002 80.044C65.9482 79.548 66.3002 79.164 66.7562 78.892C67.2122 78.612 67.7442 78.472 68.3522 78.472C68.9602 78.472 69.4922 78.612 69.9482 78.892C70.4042 79.164 70.7562 79.548 71.0042 80.044C71.2522 80.54 71.3762 81.128 71.3762 81.808C71.3762 82.48 71.2522 83.068 71.0042 83.572C70.7562 84.076 70.4042 84.464 69.9482 84.736C69.4922 85.008 68.9602 85.144 68.3522 85.144ZM68.3522 84.04C68.8962 84.04 69.3162 83.844 69.6122 83.452C69.9082 83.052 70.0562 82.504 70.0562 81.808C70.0562 81.112 69.9082 80.568 69.6122 80.176C69.3162 79.776 68.8962 79.576 68.3522 79.576C67.8162 79.576 67.3962 79.776 67.0922 80.176C66.7962 80.568 66.6482 81.112 66.6482 81.808C66.6482 82.504 66.7962 83.052 67.0922 83.452C67.3962 83.844 67.8162 84.04 68.3522 84.04ZM75.8289 85V76.48H77.1249V85H75.8289ZM80.3584 85C79.9424 85 79.6064 84.892 79.3504 84.676C79.0944 84.46 78.9664 84.116 78.9664 83.644V76.48H80.2384V83.524C80.2384 83.668 80.2744 83.776 80.3464 83.848C80.4264 83.92 80.5384 83.956 80.6824 83.956H81.1864V85H80.3584ZM83.6279 85C83.2119 85 82.8759 84.892 82.6199 84.676C82.3639 84.46 82.2359 84.116 82.2359 83.644V76.48H83.5079V83.524C83.5079 83.668 83.5439 83.776 83.6159 83.848C83.6959 83.92 83.8079 83.956 83.9519 83.956H84.4559V85H83.6279ZM88.1686 85.144C87.5446 85.144 87.0046 85.008 86.5486 84.736C86.1006 84.464 85.7526 84.076 85.5046 83.572C85.2646 83.068 85.1446 82.48 85.1446 81.808C85.1446 81.136 85.2646 80.552 85.5046 80.056C85.7526 79.552 86.1006 79.164 86.5486 78.892C86.9966 78.612 87.5246 78.472 88.1326 78.472C88.7086 78.472 89.2166 78.608 89.6566 78.88C90.0966 79.144 90.4366 79.528 90.6766 80.032C90.9246 80.536 91.0486 81.144 91.0486 81.856V82.18H86.4646C86.4966 82.804 86.6606 83.272 86.9566 83.584C87.2606 83.896 87.6686 84.052 88.1806 84.052C88.5566 84.052 88.8686 83.964 89.1166 83.788C89.3646 83.612 89.5366 83.376 89.6326 83.08L90.9526 83.164C90.7846 83.756 90.4526 84.236 89.9566 84.604C89.4686 84.964 88.8726 85.144 88.1686 85.144ZM86.4646 81.22H89.7046C89.6646 80.652 89.5006 80.232 89.2126 79.96C88.9326 79.688 88.5726 79.552 88.1326 79.552C87.6766 79.552 87.3006 79.696 87.0046 79.984C86.7166 80.264 86.5366 80.676 86.4646 81.22ZM94.9055 86.944C94.4015 86.944 93.9575 86.868 93.5735 86.716C93.1895 86.564 92.8735 86.348 92.6255 86.068C92.3775 85.796 92.2095 85.476 92.1215 85.108L93.4415 85.024C93.5295 85.288 93.6815 85.496 93.8975 85.648C94.1215 85.808 94.4575 85.888 94.9055 85.888C95.4335 85.888 95.8375 85.776 96.1175 85.552C96.4055 85.328 96.5495 84.988 96.5495 84.532V83.608C96.3975 83.936 96.1535 84.196 95.8175 84.388C95.4815 84.58 95.1055 84.676 94.6895 84.676C94.1535 84.676 93.6775 84.544 93.2615 84.28C92.8455 84.016 92.5215 83.652 92.2895 83.188C92.0575 82.724 91.9415 82.188 91.9415 81.58C91.9415 80.964 92.0535 80.424 92.2775 79.96C92.5095 79.496 92.8295 79.132 93.2375 78.868C93.6535 78.604 94.1215 78.472 94.6415 78.472C95.0975 78.472 95.4975 78.576 95.8415 78.784C96.1935 78.992 96.4455 79.272 96.5975 79.624V78.616H97.8215V84.496C97.8215 85.024 97.7015 85.468 97.4615 85.828C97.2295 86.196 96.8935 86.472 96.4535 86.656C96.0215 86.848 95.5055 86.944 94.9055 86.944ZM94.8935 83.596C95.3895 83.596 95.7855 83.416 96.0815 83.056C96.3855 82.696 96.5415 82.2 96.5495 81.568C96.5575 81.152 96.4935 80.796 96.3575 80.5C96.2215 80.196 96.0255 79.964 95.7695 79.804C95.5215 79.636 95.2295 79.552 94.8935 79.552C94.3735 79.552 93.9695 79.736 93.6815 80.104C93.4015 80.464 93.2615 80.952 93.2615 81.568C93.2615 82.192 93.4055 82.688 93.6935 83.056C93.9895 83.416 94.3895 83.596 94.8935 83.596ZM101.415 85.144C100.751 85.144 100.219 84.992 99.8186 84.688C99.4266 84.384 99.2306 83.956 99.2306 83.404C99.2306 82.852 99.3946 82.424 99.7226 82.12C100.059 81.808 100.575 81.584 101.271 81.448L103.467 81.028C103.467 80.532 103.351 80.164 103.119 79.924C102.887 79.676 102.543 79.552 102.087 79.552C101.679 79.552 101.359 79.644 101.127 79.828C100.895 80.004 100.735 80.268 100.647 80.62L99.3386 80.536C99.4586 79.896 99.7546 79.392 100.227 79.024C100.707 78.656 101.327 78.472 102.087 78.472C102.951 78.472 103.607 78.704 104.055 79.168C104.511 79.624 104.739 80.268 104.739 81.1V83.584C104.739 83.736 104.763 83.844 104.811 83.908C104.867 83.964 104.955 83.992 105.075 83.992H105.303V85C105.263 85.008 105.199 85.016 105.111 85.024C105.023 85.032 104.931 85.036 104.835 85.036C104.563 85.036 104.327 84.992 104.127 84.904C103.935 84.816 103.791 84.672 103.695 84.472C103.599 84.264 103.551 83.988 103.551 83.644L103.683 83.704C103.619 83.984 103.479 84.232 103.263 84.448C103.055 84.664 102.787 84.836 102.459 84.964C102.139 85.084 101.791 85.144 101.415 85.144ZM101.619 84.136C102.003 84.136 102.331 84.064 102.603 83.92C102.875 83.768 103.087 83.56 103.239 83.296C103.391 83.032 103.467 82.732 103.467 82.396V81.988L101.595 82.348C101.211 82.42 100.939 82.536 100.779 82.696C100.627 82.848 100.551 83.044 100.551 83.284C100.551 83.556 100.643 83.768 100.827 83.92C101.019 84.064 101.283 84.136 101.619 84.136ZM107.687 85C107.271 85 106.935 84.892 106.679 84.676C106.423 84.46 106.295 84.116 106.295 83.644V76.48H107.567V83.524C107.567 83.668 107.603 83.776 107.675 83.848C107.755 83.92 107.867 83.956 108.011 83.956H108.515V85H107.687ZM111.939 85L115.011 76.48H116.655L119.727 85H118.347L117.567 82.78H114.087L113.319 85H111.939ZM114.495 81.604H117.171L115.827 77.716L114.495 81.604ZM123.266 85.144C122.658 85.144 122.126 85.008 121.67 84.736C121.214 84.464 120.862 84.076 120.614 83.572C120.366 83.068 120.242 82.48 120.242 81.808C120.242 81.136 120.366 80.552 120.614 80.056C120.862 79.552 121.214 79.164 121.67 78.892C122.126 78.612 122.658 78.472 123.266 78.472C123.786 78.472 124.246 78.564 124.646 78.748C125.054 78.924 125.382 79.184 125.63 79.528C125.886 79.872 126.05 80.292 126.122 80.788L124.79 80.86C124.726 80.444 124.558 80.128 124.286 79.912C124.014 79.688 123.674 79.576 123.266 79.576C122.73 79.576 122.31 79.776 122.006 80.176C121.71 80.568 121.562 81.112 121.562 81.808C121.562 82.504 121.71 83.052 122.006 83.452C122.31 83.844 122.73 84.04 123.266 84.04C123.674 84.04 124.014 83.928 124.286 83.704C124.558 83.472 124.726 83.124 124.79 82.66L126.122 82.732C126.05 83.22 125.886 83.644 125.63 84.004C125.382 84.364 125.054 84.644 124.646 84.844C124.246 85.044 123.786 85.144 123.266 85.144ZM129.496 85C128.888 85 128.44 84.86 128.152 84.58C127.864 84.3 127.72 83.864 127.72 83.272V77.116H128.992V83.176C128.992 83.472 129.056 83.676 129.184 83.788C129.312 83.9 129.508 83.956 129.772 83.956H130.684V85H129.496ZM126.748 79.66V78.616H130.684V79.66H126.748ZM131.9 85V78.616H133.172V85H131.9ZM131.876 77.692V76.42H133.196V77.692H131.876ZM136.545 85L134.217 78.616H135.573L137.313 83.704L139.053 78.616H140.421L138.081 85H136.545ZM141.451 85V78.616H142.723V85H141.451ZM141.427 77.692V76.42H142.747V77.692H141.427ZM146.536 85C145.928 85 145.48 84.86 145.192 84.58C144.904 84.3 144.76 83.864 144.76 83.272V77.116H146.032V83.176C146.032 83.472 146.096 83.676 146.224 83.788C146.352 83.9 146.548 83.956 146.812 83.956H147.724V85H146.536ZM143.788 79.66V78.616H147.724V79.66H143.788ZM148.939 85V78.616H150.211V85H148.939ZM148.915 77.692V76.42H150.235V77.692H148.915ZM154.52 85.144C153.896 85.144 153.356 85.008 152.9 84.736C152.452 84.464 152.104 84.076 151.856 83.572C151.616 83.068 151.496 82.48 151.496 81.808C151.496 81.136 151.616 80.552 151.856 80.056C152.104 79.552 152.452 79.164 152.9 78.892C153.348 78.612 153.876 78.472 154.484 78.472C155.06 78.472 155.568 78.608 156.008 78.88C156.448 79.144 156.788 79.528 157.028 80.032C157.276 80.536 157.4 81.144 157.4 81.856V82.18H152.816C152.848 82.804 153.012 83.272 153.308 83.584C153.612 83.896 154.02 84.052 154.532 84.052C154.908 84.052 155.22 83.964 155.468 83.788C155.716 83.612 155.888 83.376 155.984 83.08L157.304 83.164C157.136 83.756 156.804 84.236 156.308 84.604C155.82 84.964 155.224 85.144 154.52 85.144ZM152.816 81.22H156.056C156.016 80.652 155.852 80.232 155.564 79.96C155.284 79.688 154.924 79.552 154.484 79.552C154.028 79.552 153.652 79.696 153.356 79.984C153.068 80.264 152.888 80.676 152.816 81.22ZM161.149 85.144C160.549 85.144 160.041 85.052 159.625 84.868C159.217 84.684 158.901 84.432 158.677 84.112C158.453 83.784 158.325 83.408 158.293 82.984L159.601 82.924C159.665 83.276 159.817 83.556 160.057 83.764C160.297 83.972 160.661 84.076 161.149 84.076C161.549 84.076 161.865 84.012 162.097 83.884C162.329 83.756 162.445 83.552 162.445 83.272C162.445 83.12 162.405 82.992 162.325 82.888C162.253 82.776 162.109 82.684 161.893 82.612C161.677 82.532 161.357 82.456 160.933 82.384C160.301 82.264 159.805 82.124 159.445 81.964C159.085 81.804 158.829 81.6 158.677 81.352C158.525 81.104 158.449 80.804 158.449 80.452C158.449 79.868 158.665 79.392 159.097 79.024C159.537 78.656 160.169 78.472 160.993 78.472C161.545 78.472 162.009 78.568 162.385 78.76C162.761 78.944 163.053 79.196 163.261 79.516C163.477 79.828 163.613 80.18 163.669 80.572L162.361 80.644C162.321 80.42 162.241 80.228 162.121 80.068C162.009 79.9 161.857 79.772 161.665 79.684C161.473 79.588 161.245 79.54 160.981 79.54C160.573 79.54 160.269 79.62 160.069 79.78C159.869 79.94 159.769 80.148 159.769 80.404C159.769 80.596 159.813 80.752 159.901 80.872C159.997 80.992 160.149 81.092 160.357 81.172C160.565 81.244 160.841 81.308 161.185 81.364C161.849 81.476 162.369 81.616 162.745 81.784C163.121 81.944 163.385 82.144 163.537 82.384C163.689 82.624 163.765 82.916 163.765 83.26C163.765 83.66 163.653 84 163.429 84.28C163.205 84.56 162.897 84.776 162.505 84.928C162.113 85.072 161.661 85.144 161.149 85.144Z" fill="white"/>
<path d="M37 81H37.0075" stroke="white" stroke-width="1.5" stroke-linecap="round" stroke-linejoin="round"/>
<path d="M33.6268 75.1501C33.4018 74.7751 32.9518 74.6251 32.6518 74.8501C30.9268 76.1251 29.7268 78.0751 29.5018 80.2501C29.4268 80.6251 29.8018 81.0001 30.2518 81.0001H34.0018C34.0018 79.8751 34.6018 78.9001 35.5018 78.4501C34.6768 77.0251 34.0018 75.8251 33.6268 75.1501Z" stroke="white" stroke-width="1.5" stroke-linecap="round" stroke-linejoin="round"/>
<path d="M43.75 80.9999C44.2 80.9999 44.5 80.6999 44.5 80.2499C44.275 78.0749 43.15 76.1249 41.425 74.9249C41.125 74.6999 40.6 74.7749 40.45 75.1499C40 75.8249 39.325 77.0249 38.5 78.3749C39.4 78.8999 40 79.8749 40 80.9999H43.75Z" stroke="white" stroke-width="1.5" stroke-linecap="round" stroke-linejoin="round"/>
<path d="M33.6252 86.85C33.4002 87.225 33.5502 87.675 33.9252 87.825C35.8752 88.725 38.1252 88.725 40.0752 87.825C40.4502 87.675 40.6002 87.225 40.3752 86.85C40.0002 86.175 39.3252 84.975 38.5002 83.625C37.6002 84.15 36.4002 84.15 35.5002 83.625C34.6752 84.975 34.0002 86.175 33.6252 86.85Z" stroke="white" stroke-width="1.5" stroke-linecap="round" stroke-linejoin="round"/>
<path d="M184.333 81C184.333 79.5272 185.527 78.3333 187 78.3333C188.473 78.3333 189.667 79.5272 189.667 81C189.667 82.4727 188.473 83.6666 187 83.6666C185.527 83.6666 184.333 82.4727 184.333 81ZM380.333 70C380.333 68.5272 381.527 67.3333 383 67.3333C384.473 67.3333 385.667 68.5272 385.667 70C385.667 71.4728 384.473 72.6667 383 72.6667C381.527 72.6667 380.333 71.4728 380.333 70ZM285.257 70V69.5V70ZM274.257 81V80.5V81ZM187 81L187 80.5L187.992 80.5L187.992 81L187.992 81.5L187 81.5L187 81ZM189.975 81L189.975 80.5L191.958 80.5V81V81.5L189.975 81.5V81ZM193.941 81L193.941 80.5L195.924 80.5V81V81.5L193.941 81.5V81ZM197.907 81V80.5L199.89 80.5L199.89 81V81.5L197.907 81.5V81ZM201.873 81V80.5L203.857 80.5V81L203.857 81.5L201.873 81.5V81ZM205.84 81V80.5L207.823 80.5V81V81.5L205.84 81.5V81ZM209.806 81V80.5L211.789 80.5V81V81.5L209.806 81.5V81ZM213.772 81L213.772 80.5L215.755 80.5V81V81.5L213.772 81.5V81ZM217.738 81V80.5L219.721 80.5V81V81.5L217.738 81.5V81ZM221.705 81V80.5L223.688 80.5V81V81.5L221.705 81.5V81ZM225.671 81V80.5L227.654 80.5V81V81.5L225.671 81.5V81ZM229.637 81V80.5L231.62 80.5V81V81.5L229.637 81.5V81ZM233.603 81V80.5L235.586 80.5V81V81.5L233.603 81.5L233.603 81ZM237.57 81V80.5L239.553 80.5L239.553 81V81.5L237.57 81.5V81ZM241.536 81V80.5L243.519 80.5V81V81.5L241.536 81.5V81ZM245.502 81V80.5L247.485 80.5V81V81.5L245.502 81.5V81ZM249.468 81V80.5L251.451 80.5V81V81.5L249.468 81.5V81ZM253.434 81V80.5L255.418 80.5V81V81.5L253.434 81.5V81ZM257.401 81V80.5L259.384 80.5V81V81.5L257.401 81.5V81ZM261.367 81V80.5L263.35 80.5V81V81.5L261.367 81.5V81ZM265.333 81V80.5L267.316 80.5V81V81.5L265.333 81.5V81ZM269.299 81V80.5L271.283 80.5V81V81.5L269.299 81.5V81ZM273.266 81V80.5L274.257 80.5V81V81.5L273.266 81.5V81ZM274.257 81V80.5C274.592 80.5 274.918 80.4672 275.234 80.4048L275.331 80.8953L275.428 81.3858C275.049 81.4608 274.657 81.5 274.257 81.5V81ZM277.313 80.0736L277.035 79.6581C277.58 79.2929 278.05 78.8232 278.415 78.2777L278.831 78.5559L279.246 78.8341C278.808 79.4881 278.245 80.0512 277.591 80.4891L277.313 80.0736ZM279.653 76.5734L279.162 76.4764C279.224 76.161 279.257 75.8346 279.257 75.5H279.757H280.257C280.257 75.9001 280.218 76.2915 280.143 76.6704L279.653 76.5734ZM279.757 75.5H279.257C279.257 75.0999 279.296 74.7085 279.371 74.3296L279.862 74.4266L280.352 74.5237C280.29 74.839 280.257 75.1654 280.257 75.5H279.757ZM280.684 72.4441L280.268 72.166C280.706 71.5119 281.269 70.9488 281.923 70.5109L282.201 70.9264L282.479 71.3419C281.934 71.7071 281.464 72.1768 281.099 72.7223L280.684 72.4441ZM284.184 70.1047L284.087 69.6142C284.466 69.5392 284.857 69.5 285.257 69.5V70V70.5C284.923 70.5 284.596 70.5328 284.281 70.5952L284.184 70.1047ZM285.257 70V69.5H286.275V70V70.5H285.257V70ZM288.312 70V69.5H290.348L290.348 70V70.5H288.312V70ZM292.384 70V69.5H294.421V70V70.5H292.384L292.384 70ZM296.457 70V69.5H298.493L298.493 70V70.5H296.457V70ZM300.529 70V69.5H302.566V70V70.5H300.53L300.529 70ZM304.602 70V69.5H306.638V70V70.5H304.602V70ZM308.675 70V69.5H310.711V70V70.5H308.675V70ZM312.747 70V69.5H314.784V70V70.5H312.747V70ZM316.82 70V69.5H318.856V70V70.5H316.82V70ZM320.893 70V69.5H322.929V70V70.5H320.893V70ZM324.965 70V69.5H327.002V70V70.5H324.965V70ZM329.038 70V69.5H331.074V70V70.5H329.038V70ZM333.11 70V69.5H335.147V70V70.5H333.11V70ZM337.183 70V69.5H339.219V70V70.5H337.183V70ZM341.256 70L341.256 69.5H343.292V70V70.5H341.256V70ZM345.328 70V69.5H347.365V70V70.5H345.328V70ZM349.401 70V69.5L351.437 69.5V70V70.5L349.401 70.5V70ZM353.474 70V69.5L355.51 69.5V70V70.5L353.474 70.5V70ZM357.546 70V69.5L359.582 69.5V70V70.5L357.546 70.5V70ZM361.619 70V69.5L363.655 69.5V70V70.5L361.619 70.5V70ZM365.691 70V69.5L367.728 69.5V70V70.5L365.691 70.5V70ZM369.764 70V69.5L371.8 69.5V70V70.5L369.764 70.5V70ZM373.837 70V69.5L375.873 69.5V70V70.5L373.837 70.5V70ZM377.909 70V69.5L379.946 69.5V70V70.5L377.909 70.5L377.909 70ZM381.982 70V69.5H383V70V70.5H381.982V70Z" fill="#D2D2D2"/>
<g filter="url(#filter2_d_5562_38053)">
<path d="M485 77.2912C485 108.786 463.562 124.533 438.083 133.667C436.748 134.132 435.299 134.11 433.979 133.604C408.438 124.533 387 108.786 387 77.2912V33.1986C387 31.528 387.645 29.9259 388.794 28.7446C389.943 27.5633 391.501 26.8997 393.125 26.8997C405.375 26.8997 420.687 19.3409 431.345 9.76654C432.643 8.62642 434.293 8 436 8C437.707 8 439.357 8.62642 440.655 9.76654C451.374 19.4039 466.625 26.8997 478.875 26.8997C480.499 26.8997 482.057 27.5633 483.206 28.7446C484.355 29.9259 485 31.528 485 33.1986V77.2912Z" fill="white"/>
</g>
<g filter="url(#filter3_d_5562_38053)">
<path d="M476 76.0929C476 101.589 458.5 114.336 437.7 121.73C436.611 122.107 435.428 122.089 434.35 121.679C413.5 114.336 396 101.589 396 76.0929V40.3989C396 39.0465 396.527 37.7495 397.464 36.7932C398.402 35.837 399.674 35.2997 401 35.2997C411 35.2997 423.5 29.1808 432.2 21.4301C433.259 20.5071 434.607 20 436 20C437.393 20 438.741 20.5071 439.8 21.4301C448.55 29.2317 461 35.2997 471 35.2997C472.326 35.2997 473.598 35.837 474.536 36.7932C475.473 37.7495 476 39.0465 476 40.3989V76.0929Z" fill="white"/>
</g>
<path d="M447 72.4012C447 79.4001 442.188 82.8995 436.468 84.9291C436.168 85.0325 435.843 85.0275 435.546 84.9151C429.812 82.8995 425 79.4001 425 72.4012V62.6029C425 62.2316 425.145 61.8756 425.403 61.6131C425.661 61.3506 426.01 61.2031 426.375 61.2031C429.125 61.2031 432.562 59.5234 434.955 57.3957C435.246 57.1424 435.617 57.0032 436 57.0032C436.383 57.0032 436.754 57.1424 437.045 57.3957C439.451 59.5374 442.875 61.2031 445.625 61.2031C445.99 61.2031 446.339 61.3506 446.597 61.6131C446.855 61.8756 447 62.2316 447 62.6029V72.4012Z" stroke="#00B67A" stroke-width="2" stroke-linecap="round" stroke-linejoin="round"/>
<path d="M432 71.0032L434.667 74.0032L440 68.0032" stroke="#00B67A" stroke-width="2" stroke-linecap="round" stroke-linejoin="round"/>
<defs>
<filter id="filter0_d_5562_38053" x="46" y="5" width="182" height="62" filterUnits="userSpaceOnUse" color-interpolation-filters="sRGB">
<feFlood flood-opacity="0" result="BackgroundImageFix"/>
<feColorMatrix in="SourceAlpha" type="matrix" values="0 0 0 0 0 0 0 0 0 0 0 0 0 0 0 0 0 0 127 0" result="hardAlpha"/>
<feOffset dy="4"/>
<feGaussianBlur stdDeviation="6"/>
<feComposite in2="hardAlpha" operator="out"/>
<feColorMatrix type="matrix" values="0 0 0 0 0 0 0 0 0 0 0 0 0 0 0 0 0 0 0.12 0"/>
<feBlend mode="normal" in2="BackgroundImageFix" result="effect1_dropShadow_5562_38053"/>
<feBlend mode="normal" in="SourceGraphic" in2="effect1_dropShadow_5562_38053" result="shape"/>
</filter>
<filter id="filter1_d_5562_38053" x="44" y="103" width="194" height="62" filterUnits="userSpaceOnUse" color-interpolation-filters="sRGB">
<feFlood flood-opacity="0" result="BackgroundImageFix"/>
<feColorMatrix in="SourceAlpha" type="matrix" values="0 0 0 0 0 0 0 0 0 0 0 0 0 0 0 0 0 0 127 0" result="hardAlpha"/>
<feOffset dy="4"/>
<feGaussianBlur stdDeviation="6"/>
<feComposite in2="hardAlpha" operator="out"/>
<feColorMatrix type="matrix" values="0 0 0 0 0 0 0 0 0 0 0 0 0 0 0 0 0 0 0.12 0"/>
<feBlend mode="normal" in2="BackgroundImageFix" result="effect1_dropShadow_5562_38053"/>
<feBlend mode="normal" in="SourceGraphic" in2="effect1_dropShadow_5562_38053" result="shape"/>
</filter>
<filter id="filter2_d_5562_38053" x="375" y="0" width="122" height="150" filterUnits="userSpaceOnUse" color-interpolation-filters="sRGB">
<feFlood flood-opacity="0" result="BackgroundImageFix"/>
<feColorMatrix in="SourceAlpha" type="matrix" values="0 0 0 0 0 0 0 0 0 0 0 0 0 0 0 0 0 0 127 0" result="hardAlpha"/>
<feOffset dy="4"/>
<feGaussianBlur stdDeviation="6"/>
<feComposite in2="hardAlpha" operator="out"/>
<feColorMatrix type="matrix" values="0 0 0 0 0 0 0 0 0 0 0 0 0 0 0 0 0 0 0.12 0"/>
<feBlend mode="normal" in2="BackgroundImageFix" result="effect1_dropShadow_5562_38053"/>
<feBlend mode="normal" in="SourceGraphic" in2="effect1_dropShadow_5562_38053" result="shape"/>
</filter>
<filter id="filter3_d_5562_38053" x="384" y="12" width="104" height="126" filterUnits="userSpaceOnUse" color-interpolation-filters="sRGB">
<feFlood flood-opacity="0" result="BackgroundImageFix"/>
<feColorMatrix in="SourceAlpha" type="matrix" values="0 0 0 0 0 0 0 0 0 0 0 0 0 0 0 0 0 0 127 0" result="hardAlpha"/>
<feOffset dy="4"/>
<feGaussianBlur stdDeviation="6"/>
<feComposite in2="hardAlpha" operator="out"/>
<feColorMatrix type="matrix" values="0 0 0 0 0 0 0 0 0 0 0 0 0 0 0 0 0 0 0.12 0"/>
<feBlend mode="normal" in2="BackgroundImageFix" result="effect1_dropShadow_5562_38053"/>
<feBlend mode="normal" in="SourceGraphic" in2="effect1_dropShadow_5562_38053" result="shape"/>
</filter>
<clipPath id="clip0_5562_38053">
<rect width="18" height="18" fill="white" transform="translate(69 23)"/>
</clipPath>
</defs>
</svg>
