<svg width="24" height="24" viewBox="0 0 24 24" fill="none" xmlns="http://www.w3.org/2000/svg"><path d="M19.54 5.34C18.07 4.67 16.49 4.2 14.82 3.96C14.79 3.95 14.75 3.97 14.73 4C14.52 4.38 14.29 4.87 14.13 5.26C12.33 4.99 10.55 4.99 8.79 5.26C8.63 4.87 8.39 4.38 8.18 4C8.16 3.97 8.12 3.95 8.09 3.96C6.42 4.2 4.84 4.67 3.37 5.34C3.36 5.34 3.34 5.35 3.33 5.37C0.35 9.82 -0.46 14.16 -0.06 18.44C-0.06 18.46 -0.05 18.48 -0.03 18.49C1.93 19.93 3.83 20.8 5.69 21.38C5.72 21.39 5.75 21.38 5.77 21.35C6.21 20.75 6.59 20.12 6.91 19.45C6.93 19.41 6.91 19.36 6.87 19.35C6.25 19.11 5.66 18.83 5.1 18.52C5.06 18.49 5.06 18.44 5.09 18.41C5.21 18.32 5.33 18.22 5.44 18.13C5.46 18.11 5.49 18.11 5.51 18.12C9.21 19.81 13.22 19.81 16.88 18.12C16.9 18.11 16.93 18.11 16.95 18.13C17.06 18.22 17.18 18.32 17.3 18.41C17.33 18.44 17.33 18.49 17.29 18.52C16.73 18.84 16.14 19.11 15.52 19.35C15.48 19.36 15.46 19.41 15.48 19.45C15.81 20.12 16.18 20.75 16.62 21.35C16.64 21.38 16.67 21.39 16.7 21.38C18.57 20.8 20.47 19.93 22.43 18.49C22.45 18.48 22.46 18.46 22.46 18.44C22.94 13.49 21.65 9.19 19.58 5.37C19.57 5.35 19.56 5.34 19.54 5.34ZM8.03 15.83C6.91 15.83 5.99 14.8 5.99 13.53C5.99 12.26 6.89 11.23 8.03 11.23C9.18 11.23 10.08 12.27 10.07 13.53C10.07 14.8 9.17 15.83 8.03 15.83ZM14.37 15.83C13.25 15.83 12.33 14.8 12.33 13.53C12.33 12.26 13.23 11.23 14.37 11.23C15.52 11.23 16.42 12.27 16.41 13.53C16.41 14.8 15.51 15.83 14.37 15.83Z" fill="#171717"/></svg>
