<svg width="24" height="24" viewBox="0 0 24 24" fill="none" xmlns="http://www.w3.org/2000/svg"><path d="M12 2C6.48 2 2 6.58 2 12.22C2 16.73 4.87 20.56 8.84 21.91C9.34 22.01 9.52 21.69 9.52 21.41C9.52 21.16 9.51 20.48 9.5 19.58C6.73 20.19 6.14 18.37 6.14 18.37C5.68 17.16 5.03 16.84 5.03 16.84C4.12 16.2 5.1 16.21 5.1 16.21C6.11 16.29 6.64 17.27 6.64 17.27C7.53 18.85 8.97 18.39 9.54 18.12C9.64 17.45 9.89 16.99 10.17 16.73C7.96 16.47 5.63 15.59 5.63 11.66C5.63 10.54 6.02 9.63 6.66 8.91C6.56 8.65 6.22 7.61 6.76 6.2C6.76 6.2 7.6 5.93 9.51 7.27C10.31 7.04 11.16 6.92 12 6.92C12.84 6.92 13.69 7.04 14.49 7.27C16.4 5.93 17.24 6.2 17.24 6.2C17.78 7.61 17.44 8.65 17.34 8.91C17.98 9.63 18.37 10.54 18.37 11.66C18.37 15.6 16.03 16.47 13.81 16.72C14.16 17.03 14.48 17.64 14.48 18.58C14.48 19.92 14.47 21 14.47 21.41C14.47 21.69 14.65 22.02 15.16 21.91C19.13 20.56 22 16.73 22 12.22C22 6.58 17.52 2 12 2Z" fill="#171717"/></svg>
