<svg width="24" height="24" viewBox="0 0 24 24" fill="none" xmlns="http://www.w3.org/2000/svg"><path d="M6.94 8.5H3.56V20H6.94V8.5Z" fill="#171717"/><path d="M5.25 7.06C6.33 7.06 7.2 6.18 7.2 5.1C7.2 4.02 6.33 3.14 5.25 3.14C4.17 3.14 3.3 4.02 3.3 5.1C3.3 6.18 4.17 7.06 5.25 7.06Z" fill="#171717"/><path d="M20.7 13.2C20.7 9.96 18.97 8.45 16.66 8.45C14.79 8.45 13.95 9.48 13.48 10.2V8.5H10.1C10.14 9.62 10.1 20 10.1 20H13.48V13.58C13.48 13.24 13.51 12.9 13.6 12.66C13.87 11.98 14.49 11.27 15.54 11.27C16.92 11.27 17.47 12.32 17.47 13.86V20H20.85V13.2H20.7Z" fill="#171717"/></svg>
