<svg width="24" height="24" viewBox="0 0 24 24" fill="none" xmlns="http://www.w3.org/2000/svg">
<path d="M20.0005 13C20.0005 18 16.5005 20.5 12.3405 21.95C12.1227 22.0238 11.886 22.0202 11.6705 21.94C7.50049 20.5 4.00049 18 4.00049 13V5.99996C4.00049 5.73474 4.10585 5.48039 4.29338 5.29285C4.48092 5.10532 4.73527 4.99996 5.00049 4.99996C7.00049 4.99996 9.50049 3.79996 11.2405 2.27996C11.4523 2.09896 11.7218 1.99951 12.0005 1.99951C12.2791 1.99951 12.5486 2.09896 12.7605 2.27996C14.5105 3.80996 17.0005 4.99996 19.0005 4.99996C19.2657 4.99996 19.5201 5.10532 19.7076 5.29285C19.8951 5.48039 20.0005 5.73474 20.0005 5.99996V13Z" stroke="white" stroke-width="1.5" stroke-linecap="round" stroke-linejoin="round"/>
<path d="M9.00049 12L11.0005 14L15.0005 10" stroke="white" stroke-width="1.5" stroke-linecap="round" stroke-linejoin="round"/>
</svg>
