<svg width="15" height="15" viewBox="0 0 15 15" fill="none" xmlns="http://www.w3.org/2000/svg">
<path d="M12.3281 0C12.8818 3.15695e-07 13.4131 0.219799 13.8047 0.611328C14.1962 1.00286 14.416 1.53418 14.416 2.08789V12.3281C14.416 12.8818 14.1962 13.4131 13.8047 13.8047C13.4131 14.1962 12.8819 14.416 12.3281 14.416H9.40234C9.05717 14.416 8.77735 14.1362 8.77734 13.791C8.77739 13.4459 9.05719 13.166 9.40234 13.166H12.3281C12.5503 13.166 12.7638 13.078 12.9209 12.9209C13.078 12.7638 13.166 12.5503 13.166 12.3281V2.08789C13.166 1.8657 13.078 1.65223 12.9209 1.49512C12.7638 1.33801 12.5503 1.25 12.3281 1.25H9.40234C9.05717 1.25 8.77734 0.970178 8.77734 0.625C8.77739 0.279859 9.05719 0 9.40234 0H12.3281ZM5.30273 3.1084C5.54681 2.86432 5.94342 2.86432 6.1875 3.1084L9.84473 6.76562C10.059 6.9799 10.0838 7.31075 9.92188 7.55371C9.90974 7.5719 9.89478 7.58771 9.88086 7.60449C9.86854 7.61933 9.85863 7.63648 9.84473 7.65039L6.1875 11.3076C5.94343 11.5516 5.5468 11.5516 5.30273 11.3076C5.05867 11.0636 5.0587 10.6669 5.30273 10.4229L7.89258 7.83301H0.625C0.279887 7.83296 4.43114e-05 7.55312 0 7.20801C0 6.86286 0.279859 6.58305 0.625 6.58301H7.89258L5.30273 3.99316C5.05867 3.7491 5.0587 3.35248 5.30273 3.1084Z" fill="#9D3471"/>
</svg>
