<svg width="540" height="320" viewBox="0 0 540 320" fill="none" xmlns="http://www.w3.org/2000/svg">
<g clip-path="url(#clip0_5594_9706)">
<g filter="url(#filter0_d_5594_9706)">
<circle cx="161" cy="160" r="138" fill="url(#paint0_linear_5594_9706)"/>
</g>
<path fill-rule="evenodd" clip-rule="evenodd" d="M151.535 84.5201C151.704 85.0472 151.594 85.7905 151.29 86.1751C150.987 86.5598 150.343 86.5356 149.856 86.1104C149.09 85.4458 148.938 85.5158 148.709 86.6542C148.562 87.3739 148.159 88.0569 147.811 88.169C147.462 88.281 146.993 87.8012 146.768 87.1026C146.446 86.0992 146.087 86.0045 145.054 86.6656C144.333 87.1215 143.432 88.2797 143.053 89.2351C142.668 90.1925 142.48 91.3251 142.639 91.7572C142.793 92.1913 142.634 92.6346 142.286 92.7466C141.937 92.8587 141.375 92.5697 141.028 92.0996C140.628 91.5488 140.061 91.5277 139.436 92.0437C138.905 92.4806 138.313 93.3365 138.125 93.9503C137.874 94.7805 136.983 95.2071 134.644 95.6362C131.81 96.1546 131.545 96.3309 131.914 97.4803C132.204 98.3821 131.784 99.0776 130.471 99.8706C129.458 100.483 128.51 101.713 128.372 102.591C128.162 103.919 127.729 104.248 125.788 104.542C123.864 104.824 123.388 105.173 123.098 106.513C122.902 107.403 122.972 108.298 123.246 108.498C123.52 108.697 124.477 108.235 125.364 107.467C126.726 106.286 127.077 106.202 127.602 106.923C127.987 107.444 127.776 108.051 127.059 108.498C126.419 108.9 125.618 110.587 125.28 112.258C124.947 113.92 124.198 115.66 123.618 116.12C123.036 116.573 122.4 118.578 122.2 120.569C122 122.56 121.488 124.777 121.06 125.489C120.633 126.208 120.599 127.235 120.987 127.79C121.479 128.493 121.249 129.17 120.209 130.071C119.401 130.779 118.596 132.061 118.412 132.926C118.179 134.073 117.579 134.602 116.203 134.869C114.633 135.184 113.92 136.058 111.929 140.095C110.618 142.766 109.604 145.88 109.675 147.013C109.765 148.47 110.274 149.49 111.412 150.483C112.297 151.257 113.064 152.51 113.111 153.266C113.164 154.019 113.487 154.546 113.836 154.434C114.185 154.322 114.888 154.965 115.399 155.858C115.91 156.752 116.967 157.842 117.75 158.277C118.533 158.712 119.671 158.9 120.276 158.691C120.88 158.483 122.322 156.591 123.471 154.484C124.622 152.383 125.78 150.589 126.04 150.506C126.302 150.428 128.486 152.326 130.896 154.732C133.903 157.732 135.53 159.9 136.091 161.646C136.787 163.811 137.124 164.144 138.385 163.886C139.259 163.711 140.518 162.514 141.47 160.969C142.52 159.251 143.46 158.409 144.181 158.521C144.873 158.628 145.616 158.067 146.164 157.008C146.65 156.081 146.876 154.825 146.667 154.219C146.459 153.613 145.822 153.111 145.238 153.102C144.486 153.091 144.138 152.552 144.017 151.217C143.925 150.189 144.576 148.165 145.469 146.722C146.939 144.351 146.981 143.896 145.937 142.018C145.296 140.872 143.638 139.281 142.245 138.475C139.984 137.163 139.718 136.771 139.689 134.742C139.672 133.493 139.637 132.405 139.609 132.316C139.58 132.227 140.345 130.447 141.312 128.363C142.278 126.274 143.724 123.917 144.527 123.127C145.397 122.266 146.129 120.363 146.337 118.419C146.53 116.626 147.32 114.425 148.09 113.533C149.086 112.386 150.18 111.831 151.853 111.637C153.148 111.487 154.693 111.593 155.282 111.88C155.877 112.165 156.506 112.902 156.683 113.518C156.866 114.132 156.474 115.155 155.81 115.788C155.148 116.428 153.512 119.238 152.172 122.037C149.95 126.702 149.832 127.315 150.808 129.243C151.398 130.405 152.175 132.279 152.547 133.413C153.08 135.05 153.727 135.605 155.689 136.096C157.114 136.458 158.654 136.397 159.316 135.953C159.951 135.532 162.629 134.069 165.268 132.703C167.907 131.337 171.028 130.033 172.205 129.801C173.385 129.576 174.409 129.605 174.493 129.865C174.57 130.128 173.85 131.305 172.885 132.483C171.358 134.347 170.608 134.736 167.034 135.478C163.626 136.194 162.504 136.73 160.364 138.671C158.952 139.959 157.691 141.674 157.567 142.485C157.443 143.295 157.433 144.244 157.545 144.594C157.674 144.994 158.861 144.682 160.779 143.73C162.692 142.779 163.879 142.467 164.007 142.868C164.12 143.217 164.208 144.45 164.202 145.607C164.203 146.763 163.761 148.11 163.229 148.589C162.504 149.25 161.774 149.134 160.329 148.12C159.202 147.333 158.164 147.064 157.848 147.474C157.545 147.859 157.55 148.964 157.865 149.921C158.173 150.88 158.204 152.369 157.921 153.231C157.644 154.09 157.736 155.616 158.13 156.624C158.68 158.01 158.533 158.772 157.53 159.788C156.806 160.518 154.496 161.666 152.406 162.345C149.856 163.164 147.901 164.262 146.477 165.665C145.308 166.818 143.778 167.934 143.076 168.145C142.372 168.35 141.092 168.285 140.227 167.989C139.363 167.692 138.082 167.627 137.383 167.845C136.681 168.056 135.831 168.827 135.482 169.548C135.133 170.27 134.635 170.92 134.369 170.985C134.105 171.056 133.131 170.724 132.209 170.25C131.287 169.775 130.394 168.955 130.227 168.434C130.045 167.869 130.348 167.484 130.974 167.494C131.557 167.502 132.139 167.112 132.272 166.635C132.412 166.135 131.964 165.676 131.23 165.569C130.317 165.428 130.051 165.079 130.322 164.375C130.545 163.785 130.158 162.34 129.354 160.819C128.615 159.41 127.866 158.298 127.686 158.349C127.511 158.391 127.091 159.045 126.752 159.798C126.412 160.545 125.48 161.804 124.678 162.595C123.667 163.585 123.373 164.52 123.726 165.619C124.005 166.489 124.743 167.282 125.353 167.373C125.969 167.462 127.1 168.521 127.856 169.722C128.971 171.472 129.105 172.151 128.553 173.176C128.169 173.874 126.741 174.809 125.372 175.249C123.558 175.832 122.494 176.699 121.45 178.436C120.667 179.745 119.838 182.064 119.606 183.582C119.322 185.488 118.515 186.938 116.999 188.273C115.619 189.487 114.738 190.968 114.611 192.27C114.502 193.412 113.664 195.181 112.739 196.2C111.816 197.225 110.255 198.245 109.269 198.464C107.808 198.793 107.582 199.09 108.06 200.078C108.582 201.158 108.206 201.468 104.632 202.931C102.035 203.99 100.342 205.08 99.833 206.021C99.0813 207.405 99.1207 207.462 100.738 207.293C101.672 207.196 103.431 206.876 104.653 206.589C106.558 206.138 107.303 206.431 109.806 208.625C111.413 210.035 113.182 212.144 113.734 213.318C114.287 214.493 114.809 216.294 114.896 217.324L115.057 219.199C100.975 222.834 99.6735 223.357 98.4772 224.75C97.1572 226.281 97.1619 226.644 98.5492 230.984C99.357 233.519 99.9629 236.625 99.8949 237.894C99.7884 239.827 100.127 240.706 102.004 243.346C103.808 245.892 104.517 246.421 105.691 246.113C106.49 245.899 107.553 245.55 108.061 245.324C108.571 245.104 109.849 245.163 110.903 245.461C112.617 245.941 113.238 245.762 116.673 243.825C119.112 242.445 120.872 240.955 121.485 239.749C122.014 238.697 123.109 237.203 123.913 236.419C124.718 235.635 125.428 234.384 125.482 233.638C125.553 232.683 125.011 231.975 123.664 231.245L121.743 230.208C123.685 227.805 125.1 225.57 126.148 223.692C127.335 221.573 127.872 219.74 127.568 218.857C127.298 218.061 127.578 216.822 128.208 216.038C129.062 214.972 130.242 214.467 133.134 213.93C135.998 213.395 136.872 213.023 136.674 212.428C136.505 211.922 137.02 211.567 138.1 211.445C139.382 211.299 139.893 210.799 140.228 209.36C140.473 208.314 140.955 207.375 141.303 207.263C141.652 207.151 143.13 208.07 144.583 209.306C146.554 210.977 148.312 211.702 151.516 212.158C153.868 212.488 157.029 213.315 158.539 213.985C160.441 214.832 161.482 215.786 161.945 217.095C162.315 218.16 162.252 219.596 161.805 220.384C161.367 221.155 160.492 222.13 159.857 222.551C159.223 222.972 158.427 223.914 158.085 224.655C157.539 225.853 157.596 226.031 158.603 226.268C159.231 226.416 160.74 226.212 161.955 225.814C163.86 225.188 164.289 224.63 165.034 221.854C165.508 220.084 165.608 217.697 165.256 216.557C164.654 214.62 164.757 214.44 166.831 213.773C168.048 213.382 168.959 212.775 168.846 212.425C168.734 212.076 166.528 211.285 163.946 210.672C160.976 209.966 157.359 208.353 154.13 206.294C151.315 204.501 148.857 202.531 148.667 201.919C148.477 201.307 148.828 200.179 149.451 199.418C150.235 198.459 150.978 198.115 151.886 198.286C152.603 198.427 153.797 199.444 154.54 200.558C155.797 202.445 156.019 202.506 157.83 201.546C159.383 200.718 160.436 200.73 163.096 201.606C165.496 202.39 167.313 203.67 169.648 206.212C171.423 208.143 173.038 210.231 173.228 210.842C173.424 211.452 174.216 212.459 174.995 213.077C176.084 213.939 176.785 213.987 178.041 213.282C179.071 212.699 180.258 212.584 181.261 212.962C182.846 213.56 182.85 213.573 181.749 215.132C181.141 215.985 180.774 217.042 180.928 217.476C181.088 217.908 181.453 218.022 181.747 217.739C182.04 217.455 182.516 217.456 182.8 217.751C183.09 218.043 183.875 217.307 184.548 216.117C185.22 214.92 186.279 213.795 186.892 213.612C187.503 213.423 187.906 212.915 187.772 212.475C187.643 212.033 186.706 211.073 185.687 210.342C184.675 209.609 183.414 209.146 182.888 209.315C182.361 209.484 181.798 209.189 181.63 208.668C181.463 208.147 181.942 207.44 182.7 207.098C183.727 206.635 183.921 206.131 183.458 205.103C182.97 204.02 183.196 203.548 184.499 202.898C185.409 202.444 186.924 202 187.852 201.905C188.786 201.808 190.445 201.093 191.539 200.314C193.389 198.998 193.476 198.703 192.726 196.17C192.28 194.674 191.855 192.134 191.784 190.518C191.706 188.903 192.09 186.026 192.63 184.115C193.172 182.211 193.684 180.624 193.773 180.595C193.861 180.567 195.32 179.468 197.011 178.154C198.818 176.746 200.237 176.003 200.453 176.347C200.654 176.668 202.028 176.549 203.514 176.078C205.108 175.573 207.85 173.83 210.194 171.83C212.386 169.963 214.506 168.483 214.912 168.549C215.317 168.615 215.233 169.658 214.719 170.888C214.209 172.11 213.549 173.975 213.253 175.037C212.95 176.094 212.872 177.464 213.068 178.074C213.303 178.783 214.094 179.09 215.273 178.928C216.345 178.78 218.807 179.607 221.151 180.893C223.369 182.114 225.473 183.021 225.822 182.909C226.17 182.797 229.051 183.924 232.221 185.407C236.518 187.417 238.625 188.008 240.484 187.719C242.244 187.448 243.705 186.684 245.424 185.13C247.827 182.964 247.877 182.948 248.734 184.003C249.211 184.593 249.889 184.985 250.238 184.873C250.587 184.761 251.097 183.889 251.37 182.932C251.644 181.976 251.701 180.696 251.505 180.086C251.303 179.479 249.604 178.35 247.723 177.589C245.841 176.827 241.989 176.096 239.161 175.961C234.119 175.724 234.005 175.677 233.312 173.496C232.696 171.557 232.796 171.238 234.083 171.02C234.946 170.876 236.424 169.596 237.631 167.954C239.01 166.077 239.547 164.662 239.241 163.709C238.988 162.922 237.68 160.266 236.332 157.813C234.982 155.353 233.87 152.635 233.863 151.761C233.846 150.884 234.154 149.923 234.538 149.618C234.92 149.306 235.563 149.106 235.969 149.172C236.375 149.238 237.146 148.59 237.686 147.744C238.401 146.618 239.641 145.925 242.282 145.175C244.27 144.613 246.282 144.366 246.751 144.628C247.221 144.891 248.179 144.934 248.878 144.716C249.58 144.504 250.424 143.715 250.763 142.961C251.104 142.214 251.974 141.003 252.697 140.273C253.428 139.541 255.808 138.152 258 137.182C260.195 136.217 263.033 134.773 264.318 133.982C265.601 133.184 267.447 131.834 268.423 130.974C269.399 130.114 270.088 129.059 269.96 128.617C269.826 128.177 268.867 127.392 267.824 126.865C266.583 126.248 265.151 126.168 263.705 126.633C262.401 127.059 260.889 127.034 260.034 126.572C259.232 126.144 258.423 125.367 258.236 124.852C258.05 124.338 257.991 122.696 258.103 121.217C258.209 119.739 258.286 118.454 258.257 118.365C258.235 118.274 256.767 118.514 254.997 118.887C253.228 119.259 251.572 119.483 251.312 119.37C251.046 119.26 250.824 117.677 250.805 115.855C250.793 114.03 250.585 112.36 250.342 112.15C250.1 111.941 249.971 110.952 250.06 109.964C250.146 108.969 249.228 104.85 248.021 100.81C246.442 95.5027 245.801 92.0512 245.717 88.4141C245.637 84.8107 246.078 82.2657 247.257 79.5119C248.164 77.3919 249.228 73.3438 249.615 70.5219C250.003 67.7 250.106 64.6682 249.833 63.7962C249.564 62.9157 248.748 61.5946 248.014 60.8565C247.286 60.1164 245.923 59.097 244.989 58.5845C243.743 57.906 242.074 57.9166 238.703 58.6146C234.434 59.5028 234.207 59.6246 235.407 60.3321C236.121 60.7473 237.241 61.0531 237.9 61.0163C238.558 60.9731 239.474 61.6036 239.927 62.4249C240.386 63.2442 240.542 64.4693 240.276 65.1433C240.012 65.8237 239.294 66.5306 238.68 66.7072C238.067 66.89 237.203 66.663 236.768 66.2004C236.086 65.4735 235.463 65.6246 232.386 67.2581C230.413 68.3052 228.197 69.9843 227.464 70.9905C226.728 71.9904 225.656 72.8113 225.073 72.8026C224.489 72.7939 223.82 72.1473 223.579 71.3557C223.333 70.5662 222.852 69.7888 222.498 69.6224C222.145 69.4624 221.33 70.1238 220.681 71.1099C220.037 72.0876 219.145 72.9908 218.703 73.1187C218.264 73.2529 217.004 74.232 215.91 75.3122C214.814 76.386 212.673 79.2809 211.154 81.7377C209.635 84.1946 207.823 86.395 207.13 86.6318C206.434 86.8623 205.388 86.8062 204.803 86.5106C204.223 86.2066 203.615 85.5333 203.458 85.0021C203.295 84.473 203.755 83.1831 204.468 82.1345C205.642 80.412 205.641 80.1462 204.478 79.4687C203.695 79.0127 202.261 79.0323 200.821 79.5159L198.451 80.3053C200.562 84.7837 201.521 86.29 201.944 86.5394C202.374 86.7868 202.843 87.4207 203 87.9518C203.156 88.483 202.945 89.5668 202.536 90.3637C202.045 91.3298 201.23 91.8577 200.093 91.9474C199.043 92.0326 197.568 92.8849 196.257 94.1608C195.084 95.3013 193.919 96.8109 193.665 97.523C193.372 98.3317 193.476 98.8518 193.939 98.9203C194.345 98.986 194.858 99.6056 195.083 100.304C195.309 101.009 195.066 101.711 194.54 101.88C194.014 102.049 192.372 102.079 190.89 101.953C189.409 101.826 187.652 101.998 186.993 102.343C186.333 102.681 185.929 103.385 186.094 103.9C186.262 104.421 187.131 104.926 188.029 105.023C188.928 105.119 189.781 105.553 189.915 105.993C190.056 106.431 189.532 106.999 188.748 107.258C187.963 107.517 186.377 107.718 185.221 107.712C184.016 107.707 182.527 107.057 181.725 106.194C180.962 105.367 180.15 103.82 179.921 102.759C179.586 101.192 179.043 100.701 177.056 100.176C175.703 99.8192 174.52 99.3165 174.424 99.0602C174.327 98.8039 175.222 98.4533 176.418 98.2791C177.615 98.1049 180.26 97.7594 182.295 97.5188C184.337 97.2762 187.414 96.5116 189.149 95.8141C190.877 95.1187 192.646 93.9618 193.073 93.2432C193.506 92.5225 193.592 91.1568 193.265 90.204C192.813 88.8638 191.832 88.2051 188.985 87.3124C186.956 86.682 183.164 85.8967 180.555 85.5719C177.949 85.2534 174.835 85.098 173.626 85.234C171.985 85.418 171.281 85.8403 170.838 86.9004C170.277 88.2439 170.18 88.2681 169.063 87.2958C168.407 86.7358 167.776 85.9926 167.652 85.6473C167.527 85.3021 166.564 85.268 165.51 85.5788C164.46 85.8812 162.655 86.3839 161.502 86.6914C160.349 86.9989 159.315 86.9598 159.202 86.6105C159.09 86.2613 159.43 85.5986 159.955 85.1426C160.48 84.6867 160.867 83.9318 160.815 83.4651C160.759 82.9646 159.992 82.8188 158.95 83.1044C157.981 83.3739 157.047 83.646 156.875 83.7221C156.708 83.7898 156.118 84.1754 155.575 84.5742C154.853 85.0934 154.471 84.9498 154.174 84.0227C153.902 83.1759 153.343 82.8884 152.497 83.16C151.793 83.3862 151.366 83.993 151.535 84.5201ZM45.0574 163.501C45.0657 163.919 44.3145 164.434 43.3792 164.636C42.4439 164.838 41.7713 165.293 41.8836 165.642C41.9978 165.998 41.1994 166.408 40.0833 166.571C38.9672 166.733 38.1687 167.144 38.283 167.5C38.4013 167.868 37.6053 168.243 36.3799 168.391C34.7177 168.596 34.1849 168.984 33.8325 170.261C33.5936 171.15 33.062 171.825 32.6561 171.76C32.2502 171.694 31.7363 171.074 31.5119 170.376C31.2874 169.677 30.7735 169.058 30.3676 168.992C29.9617 168.926 28.3533 169.842 26.7927 171.016C25.2321 172.19 24.1535 173.406 24.3926 173.714C24.6316 174.023 25.5489 174.134 26.427 173.971C27.303 173.802 28.4945 173.678 29.08 173.693C29.8149 173.716 29.595 174.207 28.3682 175.288C27.3943 176.155 26.8368 177.097 27.1202 177.392C27.4037 177.686 28.4974 177.65 29.5436 177.314C30.9196 176.872 31.649 177.03 32.1711 177.871C32.5668 178.514 33.3992 178.884 34.0121 178.701C34.6228 178.512 35.8113 178.684 36.6519 179.079C37.5492 179.499 38.9756 179.475 40.1306 179.02C41.2031 178.591 44.1342 176.283 46.6344 173.896C49.1345 171.509 51.5399 168.915 51.9736 168.131C52.4053 167.341 52.6144 166.272 52.4408 165.753C52.2608 165.236 51.4307 164.634 50.586 164.422C49.7477 164.208 48.8856 163.658 48.6734 163.194C48.4613 162.73 47.5543 162.433 46.6579 162.539C45.7635 162.651 45.0407 163.079 45.0574 163.501ZM68.4891 191.424C68.3967 192.813 67.8964 193.716 67.0784 193.979C66.3745 194.205 65.9469 194.812 66.1163 195.339C66.2836 195.86 66.7526 196.34 67.1585 196.405C67.5644 196.471 68.2171 197.915 68.6038 199.619C69.299 202.654 69.2664 202.748 66.8665 204.206C65.1175 205.272 64.3255 206.269 64.0871 207.726C63.8893 208.918 63.2278 209.929 62.4859 210.167C61.7884 210.391 61.1637 210.907 61.1047 211.312C61.0457 211.716 61.5553 212.344 62.2489 212.696C62.9425 213.047 63.661 213.846 63.8505 214.458C64.0401 215.07 63.6639 216.599 63.0168 217.851C61.9611 219.899 61.9705 220.212 63.1244 220.864C63.9474 221.335 64.9401 221.289 65.8853 220.747C66.7012 220.282 68.5716 219.093 70.048 218.114C71.5244 217.135 72.8493 216.142 73.0014 215.897C73.1472 215.654 73.3057 214.188 73.3578 212.629C73.4305 210.091 73.2954 209.714 72.0221 208.995C70.6797 208.235 70.6744 208.132 71.9305 207.273C72.7665 206.696 73.0431 206.033 72.661 205.497C72.3352 205.027 71.7245 204.193 71.3131 203.653C70.7645 202.925 70.9052 202.558 71.8374 202.258C72.5793 202.02 73.4081 202.335 73.8307 203.019C74.4233 203.971 74.7517 203.991 75.62 203.145C76.4544 202.323 76.8485 202.309 77.4535 203.081C77.8776 203.618 78.8405 204.415 79.5944 204.846C80.4153 205.31 80.8982 206.073 80.7965 206.736C80.6833 207.494 79.9919 207.934 78.6226 208.135C77.5066 208.298 76.7081 208.708 76.8224 209.064C76.9346 209.413 77.4954 210.179 78.0686 210.766C78.9545 211.672 78.8862 211.96 77.6276 212.659C76.6253 213.219 76.3177 213.829 76.6853 214.538C77.0858 215.327 77.7213 215.389 79.2107 214.777C80.4717 214.26 81.2891 214.257 81.4439 214.76C81.5847 215.199 80.7637 216.562 79.6217 217.798C78.486 219.032 77.6425 220.326 77.7547 220.675C77.8669 221.024 78.9606 220.988 80.1781 220.597C81.3956 220.206 82.4515 219.551 82.5105 219.147C82.5695 218.743 83.3147 218.188 84.1644 217.915C85.0078 217.644 86.0104 216.845 86.3948 216.147C86.8029 215.393 87.2947 215.095 87.6053 215.408C87.8888 215.702 88.9825 215.666 90.0287 215.33C91.075 214.994 92.7718 213.895 93.806 212.89C94.8403 211.885 95.6053 210.848 95.5153 210.59C95.4253 210.331 95.0194 210.069 94.6135 210.004C94.1865 209.938 94.1752 209.206 94.5789 208.263C95.0042 207.279 94.9699 206.323 94.4989 205.837C94.0716 205.399 93.358 205.138 92.9164 205.266C92.4728 205.388 91.9013 206.048 91.6372 206.728C91.3711 207.402 90.8286 207.913 90.4227 207.847C90.0105 207.783 89.5105 206.641 89.2892 205.234C88.9235 202.92 88.6193 202.604 85.1204 200.968C83.045 199.996 81.2571 198.916 81.1449 198.567C81.0327 198.218 80.1389 197.875 79.1516 197.806L77.3623 197.681C78.5285 194.321 78.5864 192.803 78.2415 192.144C77.7665 191.231 77.0791 191.095 75.3867 191.576C74.1549 191.922 72.8599 192.268 72.4989 192.342C72.14 192.423 72.2831 191.627 72.8143 190.581C73.3435 189.528 73.4951 188.519 73.1411 188.332C72.787 188.144 71.629 188.285 70.5658 188.634C69.0163 189.145 68.6061 189.698 68.4891 191.424ZM201.201 196.095C200.87 197.155 200.69 198.074 200.807 198.135C200.924 198.195 201.753 198.573 202.65 198.972C204.217 199.666 204.371 199.603 206.598 197.346C207.869 196.055 208.998 194.669 209.105 194.263C209.222 193.82 208.789 193.889 208.014 194.439C207.102 195.082 206.246 195.098 205.056 194.485C204.134 194.011 203.027 193.743 202.593 193.896C202.16 194.05 201.532 195.036 201.201 196.095Z" fill="white" fill-opacity="0.66"/>
<circle cx="161" cy="160" r="110.5" stroke="black" stroke-opacity="0.07"/>
<path d="M161.058 29.7695L166.081 39.9461L177.311 41.578L169.185 49.4994L171.103 60.6845L161.058 55.4036L151.013 60.6845L152.932 49.4994L144.805 41.578L156.036 39.9461L161.058 29.7695Z" fill="#D0D0D0"/>
<path d="M105.121 51.5203L110.143 61.6968L121.374 63.3287L113.247 71.2501L115.166 82.4352L105.121 77.1543L95.0757 82.4352L96.9941 71.2501L88.8677 63.3287L100.098 61.6968L105.121 51.5203Z" fill="#D0D0D0"/>
<path d="M105.121 241.056L110.143 251.233L121.374 252.865L113.247 260.786L115.166 271.971L105.121 266.69L95.0757 271.971L96.9941 260.786L88.8677 252.865L100.098 251.233L105.121 241.056Z" fill="#D0D0D0"/>
<path d="M161.058 256.592L166.081 266.768L177.311 268.4L169.185 276.321L171.103 287.507L161.058 282.226L151.013 287.507L152.932 276.321L144.805 268.4L156.036 266.768L161.058 256.592Z" fill="#D0D0D0"/>
<path d="M216.984 51.5204L222.006 61.697L233.237 63.3288L225.11 71.2502L227.029 82.4353L216.984 77.1544L206.939 82.4353L208.857 71.2502L200.731 63.3288L211.961 61.697L216.984 51.5204Z" fill="#D0D0D0"/>
<path d="M216.984 241.056L222.006 251.233L233.237 252.865L225.11 260.786L227.029 271.971L216.984 266.69L206.939 271.971L208.857 260.786L200.731 252.865L211.961 251.233L216.984 241.056Z" fill="#D0D0D0"/>
<path d="M272.91 141.628L277.932 151.804L289.163 153.436L281.036 161.358L282.955 172.543L272.91 167.262L262.865 172.543L264.783 161.358L256.657 153.436L267.887 151.804L272.91 141.628Z" fill="#D0D0D0"/>
<path d="M49.1948 141.628L54.2173 151.804L65.4478 153.436L57.3213 161.358L59.2397 172.543L49.1948 167.262L39.15 172.543L41.0684 161.358L32.9419 153.436L44.1724 151.804L49.1948 141.628Z" fill="#D0D0D0"/>
<path d="M64.7339 85.6985L69.7563 95.8751L80.9869 97.507L72.8604 105.428L74.7788 116.613L64.7339 111.333L54.689 116.613L56.6074 105.428L48.4809 97.507L59.7115 95.8751L64.7339 85.6985Z" fill="#D0D0D0"/>
<path d="M64.7339 197.556L69.7563 207.733L80.9869 209.365L72.8604 217.286L74.7788 228.471L64.7339 223.19L54.689 228.471L56.6074 217.286L48.4809 209.365L59.7115 207.733L64.7339 197.556Z" fill="#D0D0D0"/>
<path d="M257.375 85.6985L262.397 95.8751L273.627 97.507L265.501 105.428L267.419 116.613L257.375 111.333L247.33 116.613L249.248 105.428L241.122 97.507L252.352 95.8751L257.375 85.6985Z" fill="#D0D0D0"/>
<path d="M257.375 197.556L262.397 207.733L273.627 209.365L265.501 217.286L267.419 228.471L257.375 223.19L247.33 228.471L249.248 217.286L241.122 209.365L252.352 207.733L257.375 197.556Z" fill="#D0D0D0"/>
<path d="M129.68 209.512C127.525 209.512 125.68 209.011 124.144 208.008C122.608 206.984 121.435 205.587 120.624 203.816C119.813 202.024 119.408 199.976 119.408 197.672C119.408 195.389 119.813 193.352 120.624 191.56C121.456 189.768 122.651 188.36 124.208 187.336C125.765 186.291 127.632 185.768 129.808 185.768C131.664 185.768 133.232 186.099 134.512 186.76C135.813 187.421 136.837 188.328 137.584 189.48C138.352 190.632 138.885 191.944 139.184 193.416L135.568 193.608C135.312 192.221 134.736 191.101 133.84 190.248C132.944 189.373 131.6 188.936 129.808 188.936C128.229 188.936 126.939 189.331 125.936 190.12C124.933 190.909 124.187 191.965 123.696 193.288C123.227 194.611 122.992 196.072 122.992 197.672C122.992 199.336 123.227 200.819 123.696 202.12C124.187 203.421 124.933 204.456 125.936 205.224C126.96 205.971 128.261 206.344 129.84 206.344C131.077 206.344 132.144 206.077 133.04 205.544C133.936 205.011 134.629 204.285 135.12 203.368C135.632 202.451 135.909 201.437 135.952 200.328H129.872V197.416H139.248V209H136.88L136.656 203.88L137.104 204.264C136.869 205.288 136.389 206.195 135.664 206.984C134.939 207.773 134.053 208.392 133.008 208.84C131.984 209.288 130.875 209.512 129.68 209.512ZM143.565 209V186.28H150.861C154.423 186.28 157.165 187.272 159.085 189.256C161.005 191.219 161.965 194.024 161.965 197.672C161.965 201.299 161.015 204.093 159.117 206.056C157.239 208.019 154.551 209 151.053 209H143.565ZM147.021 205.832H150.861C153.378 205.832 155.255 205.16 156.493 203.816C157.751 202.451 158.381 200.403 158.381 197.672C158.381 194.899 157.751 192.84 156.493 191.496C155.255 190.131 153.378 189.448 150.861 189.448H147.021V205.832ZM165.658 209V186.28H174.138C176.741 186.28 178.768 186.909 180.218 188.168C181.669 189.405 182.394 191.133 182.394 193.352C182.394 194.824 182.064 196.104 181.402 197.192C180.741 198.259 179.792 199.08 178.554 199.656C177.338 200.211 175.866 200.488 174.138 200.488H169.114V209H165.658ZM169.114 197.352H174.042C175.6 197.352 176.784 197.021 177.594 196.36C178.405 195.677 178.81 194.675 178.81 193.352C178.81 192.051 178.405 191.08 177.594 190.44C176.784 189.779 175.6 189.448 174.042 189.448H169.114V197.352ZM186.065 209V186.28H195.121C196.742 186.28 198.139 186.557 199.312 187.112C200.486 187.667 201.393 188.456 202.033 189.48C202.673 190.504 202.993 191.72 202.993 193.128C202.993 194.152 202.758 195.069 202.289 195.88C201.841 196.691 201.233 197.341 200.465 197.832C199.718 198.301 198.918 198.568 198.065 198.632L197.905 198.344C199.334 198.344 200.443 198.675 201.233 199.336C202.022 199.976 202.481 200.989 202.609 202.376L203.217 209H199.729L199.185 202.824C199.121 201.907 198.811 201.235 198.257 200.808C197.702 200.36 196.795 200.136 195.537 200.136H189.521V209H186.065ZM189.521 196.968H195.185C196.486 196.968 197.51 196.648 198.257 196.008C199.025 195.347 199.409 194.419 199.409 193.224C199.409 192.008 199.025 191.08 198.257 190.44C197.489 189.779 196.369 189.448 194.897 189.448H189.521V196.968Z" fill="#246993"/>
<g filter="url(#filter1_d_5594_9706)">
<circle cx="378" cy="160" r="138" fill="white"/>
</g>
<g filter="url(#filter2_d_5594_9706)">
<circle cx="378" cy="160" r="104" fill="white"/>
</g>
<path d="M289.616 90.8415C288.79 91.8366 287.828 92.5365 286.729 92.9414C285.639 93.336 284.485 93.4004 283.267 93.1346C282.058 92.8585 280.858 92.2265 279.668 91.2385C278.509 90.276 277.679 89.2311 277.176 88.1035C276.664 86.9675 276.495 85.8138 276.671 84.6423C276.846 83.4709 277.368 82.362 278.237 81.3156C279.421 79.8897 280.695 79.0757 282.058 78.8735C283.42 78.6525 284.846 78.97 286.337 79.826L284.41 82.3339C283.621 81.8863 282.866 81.7102 282.146 81.8054C281.415 81.892 280.769 82.2739 280.207 82.951C279.721 83.5357 279.462 84.161 279.429 84.8268C279.396 85.4927 279.572 86.1675 279.958 86.8514C280.343 87.5353 280.915 88.1924 281.674 88.8226C282.444 89.4614 283.2 89.9073 283.943 90.1604C284.684 90.3946 285.374 90.4301 286.012 90.2667C286.65 90.1034 287.204 89.7396 287.672 89.1754C288.285 88.4368 288.553 87.6971 288.475 86.9564C288.395 86.1968 288.028 85.4591 287.375 84.7433L289.499 82.3734C290.272 83.258 290.797 84.1704 291.073 85.1105C291.35 86.0506 291.372 87.0049 291.14 87.9733C290.916 88.9314 290.408 89.8875 289.616 90.8415ZM298.459 79.8007L293.368 65.5904L296.144 63.2986L309.133 70.9901L306.696 73.0018L303.971 71.3349L299.76 74.8107L300.881 77.8018L298.459 79.8007ZM298.832 72.3353L301.732 69.9416L296.793 66.9123L298.832 72.3353ZM315.992 65.6626L309.001 53.3028L311.647 51.8061L318.234 63.4521L315.915 62.7647L323.07 58.7178L324.331 60.946L315.992 65.6626ZM332.02 56.8334L326.818 43.6206L329.646 42.5069L334.849 55.7197L332.02 56.8334ZM344.101 52.3041L340.84 38.4836L350.378 36.2332L350.966 38.7248L342.752 40.6629L343.987 38.5836L345.48 44.9099L343.542 44.011L351.406 42.1556L351.984 44.6082L344.12 46.4636L345.452 44.7931L347.06 51.6061L344.101 52.3041ZM369.158 48.17C367.72 48.2394 366.467 47.9996 365.399 47.4505C364.345 46.9007 363.511 46.0866 362.898 45.0082C362.299 43.9292 361.963 42.6306 361.889 41.1124C361.816 39.5941 362.026 38.2691 362.518 37.1374C363.024 35.9917 363.774 35.0944 364.771 34.4456C365.78 33.7828 367.004 33.4167 368.442 33.3473C369.881 33.2778 371.127 33.5246 372.182 34.0877C373.25 34.6369 374.084 35.4576 374.684 36.5499C375.297 37.6283 375.64 38.9266 375.713 40.4448C375.786 41.9631 375.57 43.2884 375.064 44.4208C374.571 45.5525 373.82 46.4431 372.81 47.0926C371.814 47.7414 370.596 48.1005 369.158 48.17ZM369.015 45.6139C369.814 45.5753 370.484 45.3561 371.025 44.9562C371.579 44.5423 371.985 43.9687 372.244 43.2354C372.515 42.5015 372.626 41.6218 372.577 40.5963C372.527 39.5708 372.332 38.7059 371.991 38.0015C371.663 37.2832 371.203 36.7447 370.611 36.3862C370.033 36.027 369.345 35.8667 368.546 35.9052C367.76 35.9432 367.097 36.1688 366.556 36.582C366.015 36.9952 365.61 37.5755 365.339 38.3227C365.08 39.0561 364.976 39.9354 365.026 40.9609C365.075 41.9864 365.264 42.8516 365.591 43.5566C365.932 44.261 366.392 44.7928 366.97 45.152C367.561 45.4973 368.242 45.6512 369.015 45.6139ZM385.209 47.3585L387.255 33.3067L393.41 34.203C394.44 34.3529 395.305 34.6541 396.007 35.1066C396.723 35.5611 397.239 36.1348 397.555 36.8277C397.874 37.5074 397.971 38.276 397.846 39.1337C397.752 39.7802 397.53 40.3339 397.18 40.795C396.843 41.2579 396.414 41.6132 395.893 41.8606C395.385 42.1101 394.822 42.2302 394.203 42.2209L394.17 42.0342C395.107 42.1706 395.789 42.4788 396.218 42.959C396.649 43.4259 396.836 44.0797 396.781 44.9206L396.55 49.0099L393.482 48.5632L393.743 44.9633C393.783 44.4166 393.669 43.9958 393.402 43.7009C393.15 43.3947 392.668 43.1898 391.955 43.086L388.967 42.6508L388.217 47.7966L385.209 47.3585ZM389.333 40.1374L392.143 40.5466C392.869 40.6523 393.454 40.569 393.897 40.2968C394.356 40.0133 394.631 39.5615 394.721 38.9414C394.814 38.308 394.678 37.8033 394.315 37.427C393.954 37.0376 393.385 36.7862 392.606 36.6729L389.895 36.2781L389.333 40.1374ZM406.036 50.6742L410.704 37.2635L413.877 38.3681L415.982 49.4775L419.204 40.2222L422.075 41.2216L417.407 54.6323L414.196 53.5146L412.017 42.7394L408.907 51.6736L406.036 50.6742ZM426.617 58.0778L433.28 45.5383L435.965 46.9649L429.301 59.5044L426.617 58.0778ZM437.087 63.7085L449.71 55.4308L452.588 57.5931L448.152 72.0215L445.626 70.1234L446.608 67.0842L442.243 63.8047L439.597 65.5945L437.087 63.7085ZM444.432 62.3225L447.438 64.5809L449.227 59.0704L444.432 62.3225ZM466.596 91.1774C465.834 90.1328 465.391 89.0283 465.267 87.8639C465.151 86.7103 465.371 85.5758 465.927 84.4602C466.491 83.3554 467.397 82.347 468.646 81.4351C469.863 80.5468 471.08 79.9971 472.296 79.7862C473.523 79.5674 474.683 79.6864 475.776 80.1432C476.869 80.6001 477.816 81.3777 478.618 82.4762C479.71 83.9731 480.188 85.4074 480.05 86.7791C479.931 88.1537 479.274 89.4586 478.079 90.6939L476.119 88.2124C476.747 87.5564 477.102 86.8676 477.186 86.146C477.281 85.4165 477.069 84.6964 476.55 83.9856C476.102 83.3717 475.559 82.9673 474.922 82.7724C474.284 82.5775 473.587 82.5831 472.829 82.7893C472.072 82.9956 471.295 83.3895 470.498 83.9713C469.69 84.5609 469.073 85.1849 468.645 85.8435C468.237 86.5049 468.034 87.165 468.036 87.8238C468.038 88.4825 468.255 89.108 468.687 89.7003C469.253 90.4757 469.905 90.9162 470.643 91.0217C471.399 91.1302 472.204 90.9553 473.058 90.4969L474.836 93.1362C473.789 93.6693 472.775 93.9549 471.796 93.9929C470.817 94.0309 469.886 93.8189 469.004 93.3567C468.13 92.9054 467.327 92.179 466.596 91.1774ZM478.29 109.754C477.685 108.448 477.435 107.197 477.542 106.001C477.654 104.817 478.095 103.738 478.863 102.765C479.637 101.803 480.713 101.003 482.092 100.363C483.471 99.7239 484.778 99.4194 486.012 99.4498C487.263 99.4866 488.377 99.8445 489.354 100.523C490.347 101.209 491.147 102.205 491.753 103.511C492.359 104.818 492.6 106.065 492.475 107.255C492.368 108.451 491.922 109.532 491.136 110.499C490.367 111.473 489.294 112.28 487.915 112.919C486.536 113.559 485.227 113.857 483.987 113.815C482.753 113.784 481.645 113.423 480.663 112.732C479.687 112.053 478.896 111.061 478.29 109.754ZM480.604 108.659C480.941 109.385 481.396 109.923 481.971 110.274C482.563 110.632 483.247 110.792 484.023 110.755C484.806 110.731 485.662 110.502 486.594 110.07C487.525 109.639 488.253 109.132 488.777 108.551C489.319 107.976 489.645 107.348 489.754 106.665C489.87 105.994 489.759 105.296 489.422 104.57C489.091 103.856 488.633 103.327 488.046 102.982C487.46 102.636 486.77 102.479 485.975 102.509C485.199 102.546 484.345 102.78 483.413 103.212C482.482 103.644 481.751 104.144 481.222 104.713C480.697 105.295 480.378 105.92 480.263 106.591C480.165 107.268 480.279 107.958 480.604 108.659ZM485.077 124.317L498.879 120.978L499.669 124.244L491.47 132.03L500.995 129.726L501.71 132.681L487.908 136.019L487.108 132.715L494.987 125.047L485.792 127.272L485.077 124.317ZM489.892 151.222C489.832 149.997 489.987 148.935 490.357 148.036C490.728 147.137 491.273 146.423 491.995 145.894C492.717 145.365 493.582 145.042 494.591 144.926L494.88 147.976C494.324 148.083 493.853 148.266 493.465 148.526C493.091 148.797 492.814 149.145 492.635 149.567C492.456 150.003 492.381 150.527 492.411 151.14C492.435 151.646 492.516 152.069 492.653 152.41C492.79 152.763 492.983 153.028 493.232 153.202C493.494 153.377 493.805 153.455 494.165 153.437C494.498 153.421 494.78 153.327 495.012 153.156C495.257 152.984 495.469 152.666 495.646 152.204C495.837 151.741 496.011 151.065 496.168 150.176C496.389 148.951 496.654 147.956 496.964 147.194C497.275 146.444 497.682 145.891 498.185 145.532C498.701 145.174 499.359 144.975 500.158 144.936C501.011 144.894 501.766 145.064 502.426 145.446C503.086 145.841 503.615 146.43 504.014 147.211C504.412 147.993 504.638 148.936 504.692 150.041C504.749 151.213 504.591 152.216 504.218 153.048C503.844 153.881 503.309 154.541 502.612 155.028C501.915 155.53 501.103 155.849 500.176 155.988L499.868 152.959C500.359 152.895 500.779 152.742 501.127 152.498C501.489 152.253 501.76 151.933 501.941 151.537C502.122 151.141 502.2 150.67 502.173 150.124C502.139 149.431 501.96 148.893 501.634 148.508C501.309 148.137 500.9 147.963 500.407 147.987C500.061 148.004 499.772 148.105 499.541 148.29C499.323 148.487 499.138 148.797 498.985 149.218C498.833 149.653 498.695 150.26 498.573 151.04C498.371 152.372 498.082 153.427 497.706 154.206C497.344 154.998 496.891 155.567 496.348 155.914C495.804 156.261 495.172 156.452 494.453 156.487C493.574 156.53 492.797 156.341 492.123 155.92C491.462 155.511 490.939 154.903 490.552 154.094C490.166 153.298 489.946 152.341 489.892 151.222ZM489.591 171.803C489.756 170.614 490.117 169.614 490.674 168.803C491.229 168.005 491.943 167.425 492.814 167.061C493.699 166.699 494.69 166.595 495.786 166.747L504.799 167.999L504.381 171.01L495.367 169.758C494.456 169.631 493.717 169.771 493.149 170.177C492.592 170.597 492.252 171.257 492.127 172.155C492.002 173.053 492.151 173.774 492.574 174.317C493.009 174.862 493.683 175.198 494.594 175.325L503.608 176.577L503.189 179.588L494.176 178.336C493.08 178.183 492.155 177.813 491.403 177.223C490.661 176.649 490.133 175.896 489.818 174.964C489.504 174.032 489.428 172.978 489.591 171.803ZM487.415 187.582L500.779 192.384L499.405 196.205L488.45 196.115L496.964 203L495.591 206.82L482.227 202.018L483.255 199.157L491.913 202.269L484.423 196.027L485.302 193.581L495.045 193.554L486.387 190.443L487.415 187.582ZM478.636 211.142L490.778 218.504L485.656 226.952L483.467 225.625L487.013 219.776L484.226 218.086L480.804 223.73L478.649 222.423L482.071 216.78L479.249 215.069L475.62 221.054L473.431 219.727L478.636 211.142ZM460.741 236.77L470.373 247.204L466.199 251.057C464.945 252.214 463.685 252.815 462.419 252.859C461.143 252.912 460.017 252.409 459.04 251.351C458.398 250.655 457.999 249.899 457.843 249.081C457.686 248.282 457.78 247.46 458.125 246.615C458.47 245.789 459.058 244.992 459.891 244.223L461.831 242.433L458.507 238.832L460.741 236.77ZM463.567 244.314L461.76 245.982C461.172 246.525 460.834 247.073 460.746 247.626C460.667 248.189 460.862 248.725 461.333 249.235C461.794 249.734 462.304 249.962 462.862 249.919C463.42 249.894 463.997 249.605 464.595 249.054L466.403 247.385L463.567 244.314ZM445.721 250.271L453.309 262.274L448.052 265.598C447.173 266.153 446.319 266.488 445.492 266.601C444.653 266.721 443.888 266.621 443.196 266.301C442.512 265.993 441.938 265.472 441.475 264.739C441.126 264.187 440.935 263.622 440.9 263.044C440.855 262.473 440.95 261.925 441.184 261.398C441.408 260.878 441.757 260.42 442.233 260.025L442.38 260.145C441.58 260.651 440.861 260.861 440.223 260.775C439.592 260.701 439.024 260.326 438.519 259.652L436.034 256.396L438.655 254.739L440.798 257.643C441.124 258.084 441.484 258.329 441.879 258.379C442.269 258.448 442.769 258.29 443.378 257.905L445.93 256.291L443.151 251.896L445.721 250.271ZM447.288 258.438L444.887 259.956C444.267 260.348 443.877 260.791 443.717 261.287C443.553 261.801 443.639 262.323 443.974 262.852C444.316 263.393 444.747 263.688 445.267 263.738C445.795 263.799 446.391 263.619 447.056 263.199L449.372 261.735L447.288 258.438ZM427.774 261.359L433.503 274.352L430.722 275.579L424.992 262.586L427.774 261.359ZM412.224 267.343L420.941 279.666L417.915 280.503L411.4 271.119L410.628 282.516L407.601 283.352L408.774 268.296L412.224 267.343ZM398.373 271.1L394.585 285.712L391.001 286.044L384.592 272.378L387.739 272.086L389.053 274.997L394.49 274.493L395.247 271.39L398.373 271.1ZM393.864 277.062L390.12 277.409L392.498 282.692L393.864 277.062ZM370.467 271.963C371.754 272.086 372.874 272.488 373.827 273.169C374.767 273.849 375.469 274.767 375.934 275.923C376.386 277.078 376.538 278.425 376.39 279.965C376.246 281.465 375.849 282.739 375.199 283.789C374.548 284.851 373.689 285.64 372.622 286.153C371.554 286.667 370.344 286.859 368.99 286.729C367.145 286.552 365.756 285.957 364.822 284.943C363.873 283.941 363.333 282.583 363.203 280.87L366.36 281.052C366.434 281.957 366.713 282.68 367.197 283.222C367.679 283.777 368.359 284.097 369.234 284.181C369.991 284.253 370.654 284.116 371.223 283.769C371.792 283.422 372.251 282.896 372.6 282.193C372.948 281.49 373.17 280.647 373.264 279.665C373.36 278.67 373.303 277.794 373.094 277.037C372.871 276.292 372.513 275.702 372.019 275.266C371.525 274.83 370.913 274.577 370.183 274.507C369.227 274.416 368.465 274.61 367.896 275.092C367.313 275.585 366.91 276.303 366.685 277.246L363.531 276.823C363.828 275.686 364.287 274.739 364.909 273.981C365.531 273.224 366.307 272.669 367.238 272.316C368.156 271.962 369.233 271.844 370.467 271.963ZM352.035 269.645L350.524 274.954L352.899 284.655L349.667 283.735L348.252 277.384L343.723 282.043L340.492 281.123L347.6 274.121L349.111 268.812L352.035 269.645ZM326.567 260.568L314.661 269.846L311.616 267.926L314.862 253.184L317.534 254.87L316.803 257.979L321.421 260.892L323.912 258.893L326.567 260.568ZM319.359 262.548L316.179 260.542L314.846 266.18L319.359 262.548ZM303.915 244.251C304.861 245.133 305.504 246.134 305.845 247.255C306.176 248.366 306.174 249.521 305.838 250.722C305.493 251.913 304.793 253.074 303.738 254.205C302.71 255.307 301.619 256.076 300.464 256.512C299.3 256.958 298.139 257.06 296.98 256.817C295.82 256.574 294.743 255.989 293.749 255.062C292.394 253.797 291.654 252.479 291.531 251.106C291.389 249.733 291.788 248.328 292.729 246.89L295.122 248.957C294.629 249.72 294.41 250.463 294.463 251.188C294.508 251.922 294.852 252.589 295.495 253.19C296.051 253.708 296.66 254.003 297.323 254.074C297.986 254.146 298.67 254.009 299.375 253.663C300.08 253.318 300.769 252.785 301.442 252.063C302.124 251.332 302.613 250.603 302.908 249.875C303.185 249.149 303.26 248.462 303.134 247.816C303.007 247.169 302.676 246.596 302.14 246.096C301.438 245.441 300.715 245.131 299.971 245.166C299.208 245.202 298.45 245.526 297.698 246.137L295.455 243.88C296.382 243.159 297.323 242.688 298.278 242.466C299.233 242.244 300.186 242.277 301.14 242.564C302.083 242.843 303.009 243.405 303.915 244.251ZM290.641 231.404L281.53 238.648L284.169 241.967L282.165 243.56L274.97 234.512L276.974 232.919L279.625 236.253L288.736 229.009L290.641 231.404Z" fill="black" fill-opacity="0.09"/>
<path d="M345.712 209.512C343.664 209.512 341.861 209.043 340.304 208.104C338.747 207.144 337.531 205.779 336.656 204.008C335.781 202.237 335.344 200.125 335.344 197.672C335.344 195.24 335.771 193.139 336.624 191.368C337.499 189.576 338.715 188.2 340.272 187.24C341.829 186.259 343.653 185.768 345.744 185.768C348.56 185.768 350.747 186.472 352.304 187.88C353.861 189.288 354.875 191.24 355.344 193.736L351.728 193.928C351.429 192.371 350.789 191.155 349.808 190.28C348.827 189.384 347.472 188.936 345.744 188.936C344.357 188.936 343.152 189.288 342.128 189.992C341.125 190.696 340.336 191.699 339.76 193C339.205 194.301 338.928 195.859 338.928 197.672C338.928 199.485 339.205 201.043 339.76 202.344C340.336 203.645 341.136 204.637 342.16 205.32C343.184 206.003 344.368 206.344 345.712 206.344C347.547 206.344 348.965 205.864 349.968 204.904C350.992 203.923 351.632 202.579 351.888 200.872L355.504 201.064C355.227 202.792 354.672 204.285 353.84 205.544C353.008 206.803 351.909 207.784 350.544 208.488C349.179 209.171 347.568 209.512 345.712 209.512ZM368.368 209.512C366.32 209.512 364.518 209.043 362.96 208.104C361.403 207.144 360.187 205.779 359.312 204.008C358.438 202.237 358 200.125 358 197.672C358 195.24 358.427 193.139 359.28 191.368C360.155 189.576 361.371 188.2 362.928 187.24C364.486 186.259 366.31 185.768 368.4 185.768C371.216 185.768 373.403 186.472 374.96 187.88C376.518 189.288 377.531 191.24 378 193.736L374.384 193.928C374.086 192.371 373.446 191.155 372.464 190.28C371.483 189.384 370.128 188.936 368.4 188.936C367.014 188.936 365.808 189.288 364.784 189.992C363.782 190.696 362.992 191.699 362.416 193C361.862 194.301 361.584 195.859 361.584 197.672C361.584 199.485 361.862 201.043 362.416 202.344C362.992 203.645 363.792 204.637 364.816 205.32C365.84 206.003 367.024 206.344 368.368 206.344C370.203 206.344 371.622 205.864 372.624 204.904C373.648 203.923 374.288 202.579 374.544 200.872L378.16 201.064C377.883 202.792 377.328 204.285 376.496 205.544C375.664 206.803 374.566 207.784 373.2 208.488C371.835 209.171 370.224 209.512 368.368 209.512ZM382.065 209V186.28H390.545C393.147 186.28 395.174 186.909 396.625 188.168C398.075 189.405 398.801 191.133 398.801 193.352C398.801 194.824 398.47 196.104 397.809 197.192C397.147 198.259 396.198 199.08 394.961 199.656C393.745 200.211 392.273 200.488 390.545 200.488H385.521V209H382.065ZM385.521 197.352H390.449C392.006 197.352 393.19 197.021 394.001 196.36C394.811 195.677 395.217 194.675 395.217 193.352C395.217 192.051 394.811 191.08 394.001 190.44C393.19 189.779 392.006 189.448 390.449 189.448H385.521V197.352ZM398.578 209L406.77 186.28H411.154L419.346 209H415.666L413.586 203.08H404.306L402.258 209H398.578ZM405.394 199.944H412.53L408.946 189.576L405.394 199.944Z" fill="#CD2454"/>
<rect x="356" y="118" width="43" height="43" rx="10" fill="#D0D0D0"/>
<rect x="367" y="105" width="21" height="26" rx="10.5" stroke="#D0D0D0" stroke-width="6"/>
<path fill-rule="evenodd" clip-rule="evenodd" d="M368.092 130.183C368.018 130.322 368.052 130.54 368.232 131.078C368.362 131.468 368.469 131.974 368.468 132.201C368.468 132.479 368.391 132.734 368.235 132.98C368.06 133.254 368 133.476 368 133.852C368 134.29 368.062 134.458 368.469 135.135C368.911 135.868 368.939 135.953 368.939 136.557L368.938 137.199C369.831 138.309 370.07 138.707 370.112 138.918C370.159 139.156 370.268 139.319 370.465 139.445C370.676 139.581 370.75 139.7 370.75 139.904C370.75 140.055 370.849 140.395 370.971 140.66C371.094 140.926 371.35 141.276 371.541 141.44C371.878 141.729 371.885 141.746 371.748 141.99C371.669 142.129 371.606 142.325 371.605 142.426C371.604 142.527 371.661 142.692 371.731 142.793C371.802 142.893 372.021 143.08 372.219 143.205C372.417 143.332 372.669 143.578 372.778 143.755C372.888 143.932 373.214 144.328 373.502 144.634C373.791 144.941 374.103 145.281 374.194 145.391C374.302 145.521 374.36 145.748 374.36 146.048C374.36 146.435 374.405 146.55 374.645 146.782C374.912 147.039 374.977 147.057 375.667 147.06C376.071 147.061 376.492 147.114 376.603 147.175C376.712 147.236 376.936 147.441 377.101 147.63C377.374 147.943 377.443 147.974 377.876 147.974C378.235 147.974 378.351 148.008 378.351 148.111C378.351 148.187 378.436 148.29 378.541 148.341C378.645 148.391 378.849 148.433 378.992 148.434C379.175 148.435 379.44 148.596 379.871 148.968C380.226 149.274 380.523 149.614 380.568 149.768C380.613 149.916 380.731 150.254 380.83 150.519L381.011 151C381.674 151 382.797 150.854 383.933 150.675C385.19 150.478 386.111 150.287 386.285 150.189C386.469 150.085 386.603 149.911 386.665 149.695C386.734 149.453 386.727 149.299 386.641 149.127C386.575 148.997 386.457 148.891 386.38 148.891C386.302 148.891 386.237 148.828 386.237 148.753C386.237 148.678 386.302 148.492 386.38 148.341C386.498 148.111 386.502 148.013 386.403 147.753C386.289 147.452 386.299 147.425 386.641 147.065C386.837 146.859 386.998 146.597 387 146.484C387.001 146.37 386.84 146.074 386.644 145.825C386.442 145.572 386.264 145.23 386.237 145.046C386.192 144.741 385.831 144.43 380.99 140.546L375.791 136.373C375.786 131.557 375.747 130.294 375.69 130.183C375.598 130.005 375.5 130 371.893 130C368.286 130 368.187 130.005 368.092 130.183ZM374.752 148.154C374.524 148.252 374.34 148.364 374.346 148.405C374.351 148.445 374.452 148.57 374.571 148.683C374.788 148.886 374.788 148.886 375.453 148.729C376.011 148.596 376.121 148.538 376.133 148.372C376.142 148.257 376.081 148.154 375.991 148.127C375.904 148.102 375.684 148.058 375.5 148.03C375.279 147.996 375.029 148.037 374.752 148.154ZM377.638 148.952C377.595 148.985 377.565 149.079 377.573 149.159C377.58 149.238 377.683 149.395 377.802 149.508C377.921 149.62 378.114 149.713 378.232 149.714C378.407 149.716 378.446 149.666 378.446 149.441C378.446 149.258 378.375 149.12 378.232 149.027C378.114 148.951 377.951 148.89 377.868 148.89C377.786 148.891 377.682 148.918 377.638 148.952ZM377.691 150.235C377.614 150.261 377.561 150.351 377.571 150.434C377.581 150.519 377.653 150.68 377.732 150.794C377.828 150.931 377.971 151 378.161 151C378.368 151 378.447 150.956 378.448 150.84C378.449 150.751 378.332 150.566 378.186 150.429C378.042 150.291 377.901 150.18 377.876 150.184C377.85 150.187 377.767 150.21 377.691 150.235Z" fill="white"/>
<path d="M269.5 74.7168C287.977 98.1913 299 127.808 299 160C299 192.191 287.977 221.808 269.5 245.282C251.023 221.808 240 192.191 240 160C240 127.808 251.023 98.1913 269.5 74.7168Z" fill="#248DCD"/>
<path d="M278.665 161.083C278.665 166.5 274.874 169.208 270.367 170.779C270.131 170.859 269.875 170.855 269.641 170.768C265.124 169.208 261.332 166.5 261.332 161.083V153.5C261.332 153.213 261.446 152.937 261.649 152.734C261.852 152.531 262.128 152.417 262.415 152.417C264.582 152.417 267.29 151.117 269.175 149.47C269.405 149.274 269.697 149.166 269.999 149.166C270.301 149.166 270.593 149.274 270.822 149.47C272.718 151.128 275.415 152.417 277.582 152.417C277.869 152.417 278.145 152.531 278.348 152.734C278.551 152.937 278.665 153.213 278.665 153.5V161.083Z" stroke="white" stroke-width="1.5" stroke-linecap="round" stroke-linejoin="round"/>
<path d="M266.75 160L268.917 162.167L273.25 157.833" stroke="white" stroke-width="1.5" stroke-linecap="round" stroke-linejoin="round"/>
</g>
<defs>
<filter id="filter0_d_5594_9706" x="-13" y="-8" width="348" height="348" filterUnits="userSpaceOnUse" color-interpolation-filters="sRGB">
<feFlood flood-opacity="0" result="BackgroundImageFix"/>
<feColorMatrix in="SourceAlpha" type="matrix" values="0 0 0 0 0 0 0 0 0 0 0 0 0 0 0 0 0 0 127 0" result="hardAlpha"/>
<feOffset dy="6"/>
<feGaussianBlur stdDeviation="18"/>
<feComposite in2="hardAlpha" operator="out"/>
<feColorMatrix type="matrix" values="0 0 0 0 0 0 0 0 0 0 0 0 0 0 0 0 0 0 0.05 0"/>
<feBlend mode="normal" in2="BackgroundImageFix" result="effect1_dropShadow_5594_9706"/>
<feBlend mode="normal" in="SourceGraphic" in2="effect1_dropShadow_5594_9706" result="shape"/>
</filter>
<filter id="filter1_d_5594_9706" x="204" y="-8" width="348" height="348" filterUnits="userSpaceOnUse" color-interpolation-filters="sRGB">
<feFlood flood-opacity="0" result="BackgroundImageFix"/>
<feColorMatrix in="SourceAlpha" type="matrix" values="0 0 0 0 0 0 0 0 0 0 0 0 0 0 0 0 0 0 127 0" result="hardAlpha"/>
<feOffset dy="6"/>
<feGaussianBlur stdDeviation="18"/>
<feComposite in2="hardAlpha" operator="out"/>
<feColorMatrix type="matrix" values="0 0 0 0 0 0 0 0 0 0 0 0 0 0 0 0 0 0 0.05 0"/>
<feBlend mode="normal" in2="BackgroundImageFix" result="effect1_dropShadow_5594_9706"/>
<feBlend mode="normal" in="SourceGraphic" in2="effect1_dropShadow_5594_9706" result="shape"/>
</filter>
<filter id="filter2_d_5594_9706" x="238" y="32" width="280" height="280" filterUnits="userSpaceOnUse" color-interpolation-filters="sRGB">
<feFlood flood-opacity="0" result="BackgroundImageFix"/>
<feColorMatrix in="SourceAlpha" type="matrix" values="0 0 0 0 0 0 0 0 0 0 0 0 0 0 0 0 0 0 127 0" result="hardAlpha"/>
<feOffset dy="12"/>
<feGaussianBlur stdDeviation="18"/>
<feComposite in2="hardAlpha" operator="out"/>
<feColorMatrix type="matrix" values="0 0 0 0 0 0 0 0 0 0 0 0 0 0 0 0 0 0 0.13 0"/>
<feBlend mode="normal" in2="BackgroundImageFix" result="effect1_dropShadow_5594_9706"/>
<feBlend mode="normal" in="SourceGraphic" in2="effect1_dropShadow_5594_9706" result="shape"/>
</filter>
<linearGradient id="paint0_linear_5594_9706" x1="299" y1="160" x2="23" y2="160" gradientUnits="userSpaceOnUse">
<stop stop-color="#E2E8E9"/>
<stop offset="1" stop-color="#F4EFEF"/>
</linearGradient>
<clipPath id="clip0_5594_9706">
<rect width="540" height="320" fill="white"/>
</clipPath>
</defs>
</svg>
