<svg width="126" height="20" viewBox="0 0 126 20" fill="none" xmlns="http://www.w3.org/2000/svg">
    <path d="M34.385 19.8999L41.4929 9.948L34.385 0H41.491L48.6001 9.95093L41.4929 19.9031H34.385V19.8999Z" fill="#B53471"/>
    <path d="M55.7001 19.8999H48.6L52.1539 14.925L55.7059 19.897L55.7001 19.8999ZM52.1481 4.97095L48.6 0H55.7069L52.1559 4.97412L52.1481 4.97095Z" fill="#833471"/>
    <path d="M0.642 19.707V16.658L8.842 8.53702C9.12554 8.27717 9.37669 7.98405 9.59 7.66402C9.7675 7.39317 9.90744 7.09949 10.006 6.79102C10.0972 6.50414 10.144 6.20503 10.145 5.90402C10.1457 5.59626 10.0716 5.29295 9.92909 5.02016C9.7866 4.74738 9.57998 4.51328 9.327 4.33802C8.73697 3.9079 8.0197 3.68818 7.29 3.71402C6.44666 3.70864 5.61297 3.89355 4.851 4.25502C3.93446 4.73197 3.10131 5.35438 2.384 6.09802L0 3.18702C1.02807 2.18815 2.2262 1.38082 3.538 0.803022C4.76743 0.272228 6.09288 -8.11408e-05 7.432 0.00301869C8.67461 -0.0256482 9.90865 0.215565 11.049 0.710019C12.0156 1.13139 12.8464 1.81265 13.449 2.67802C14.0313 3.55065 14.3312 4.58121 14.308 5.63002C14.3101 6.22663 14.2214 6.82008 14.045 7.39002C13.8573 7.9779 13.5815 8.5339 13.227 9.03902C12.8022 9.63912 12.3195 10.1961 11.786 10.702L6.186 16.107L14.586 16.079V19.71L0.642 19.707ZM24.23 19.984C22.8116 20.0036 21.4123 19.6549 20.169 18.972C18.9908 18.3285 18.0017 17.3876 17.3 16.243C16.594 15.0831 16.229 13.7478 16.247 12.39C16.2284 11.0376 16.5782 9.7057 17.259 8.53702C17.9235 7.40131 18.8746 6.45994 20.017 5.80702C21.1972 5.12756 22.5383 4.7777 23.9 4.79402C25.248 4.76828 26.5753 5.12881 27.725 5.83302C28.8363 6.52885 29.7407 7.50991 30.344 8.67402C30.9995 9.95075 31.3279 11.3701 31.3 12.805V13.914H20.848C21.045 14.3666 21.3221 14.7799 21.666 15.134C22.0151 15.4901 22.4352 15.7688 22.899 15.952C23.3926 16.1485 23.9197 16.2473 24.451 16.243C25.0186 16.2505 25.5826 16.1518 26.114 15.952C26.5916 15.7716 27.026 15.4929 27.389 15.134L30.355 17.767C29.515 18.4936 28.5532 19.0661 27.514 19.458C26.4582 19.8229 25.3469 20.0009 24.23 19.984ZM20.765 10.784H26.891C26.7569 10.3286 26.5252 9.90784 26.212 9.55102C25.9135 9.2156 25.5506 8.94355 25.145 8.75102C24.7293 8.55501 24.2746 8.45553 23.815 8.46002C23.3477 8.45348 22.8844 8.54797 22.457 8.73702C22.0553 8.91828 21.7 9.18841 21.418 9.52702C21.1166 9.89581 20.8944 10.3227 20.765 10.781V10.784Z" fill="black"/>
    <path d="M66.892 19.919C65.4669 20.023 64.0527 19.6042 62.914 18.741C62.4472 18.2955 62.0847 17.7523 61.8524 17.1504C61.62 16.5484 61.5236 15.9025 61.57 15.259V8.80097H58.604V5.05898H61.57V1.28897L66.06 0.31897V5.05898H70.16V8.80097H66.06V14.372C66.0348 14.6179 66.0599 14.8663 66.1339 15.1022C66.2078 15.3381 66.329 15.5564 66.49 15.744C66.9281 16.057 67.4654 16.1992 68.001 16.144C68.3396 16.1463 68.6779 16.1232 69.013 16.075C69.3554 16.02 69.6936 15.9412 70.025 15.839V19.47C69.5178 19.6205 68.9985 19.7273 68.473 19.789C67.9493 19.866 67.4212 19.9094 66.892 19.919ZM71.909 19.725V5.05898H76.399V6.52797C76.8534 5.95746 77.4317 5.49786 78.09 5.18398C78.7676 4.87253 79.5063 4.71639 80.252 4.72697C80.8375 4.69591 81.4209 4.8201 81.943 5.08698V8.99497C81.626 8.83989 81.2897 8.72789 80.943 8.66197C80.5689 8.58759 80.1884 8.55041 79.807 8.55097C79.1253 8.54589 78.4532 8.71269 77.853 9.03597C77.2553 9.35673 76.7533 9.83013 76.398 10.408V19.719L71.909 19.725ZM88.291 19.974C87.3388 19.9911 86.3953 19.791 85.532 19.389C84.7684 19.0355 84.1164 18.4793 83.647 17.781C83.1896 17.0815 82.9531 16.2606 82.968 15.425C82.9396 14.7922 83.0707 14.1623 83.3492 13.5934C83.6277 13.0245 84.0448 12.5347 84.562 12.169C85.8879 11.3291 87.4442 10.9268 89.011 11.019C90.1328 11.0161 91.2505 11.1559 92.337 11.435V10.714C92.3602 10.4025 92.3081 10.0901 92.185 9.80308C92.0619 9.51606 91.8716 9.26289 91.63 9.06497C91.0095 8.66241 90.2749 8.47253 89.537 8.52397C88.8859 8.5349 88.2388 8.62796 87.611 8.80097C86.7546 9.03643 85.9161 9.33286 85.102 9.68797L83.494 6.38797C84.6142 5.87993 85.7787 5.47623 86.973 5.18198C88.076 4.91643 89.2065 4.78217 90.341 4.78197C92.0451 4.6763 93.7296 5.19337 95.081 6.23697C95.6517 6.74768 96.1001 7.38037 96.3928 8.08807C96.6856 8.79578 96.8152 9.56033 96.772 10.325V19.725H92.337V18.838C91.768 19.2341 91.1351 19.5294 90.466 19.711C89.7551 19.8922 89.0236 19.9796 88.29 19.971L88.291 19.974ZM87.238 15.345C87.2332 15.5633 87.2874 15.7789 87.3947 15.9692C87.502 16.1594 87.6586 16.3172 87.848 16.426C88.364 16.7117 88.9501 16.8462 89.539 16.814C90.0474 16.8172 90.5544 16.7615 91.05 16.648C91.5049 16.5427 91.9396 16.364 92.337 16.119V14.234C91.9096 14.1227 91.4753 14.0396 91.037 13.985C90.5865 13.9292 90.133 13.9014 89.679 13.902C89.0567 13.8681 88.4363 13.997 87.879 14.276C87.6829 14.3757 87.5188 14.5285 87.4053 14.717C87.2918 14.9055 87.2335 15.122 87.237 15.342L87.238 15.345ZM106.532 19.999C105.15 20.0183 103.788 19.6734 102.582 18.999C101.427 18.3524 100.466 17.4102 99.796 16.269C99.1077 15.0977 98.7529 13.7604 98.77 12.402C98.7479 11.0383 99.1019 9.6948 99.793 8.51897C100.468 7.3819 101.428 6.44084 102.579 5.78897C103.782 5.10655 105.146 4.75723 106.529 4.77697C107.711 4.77315 108.881 5.01385 109.966 5.48397C111.03 5.93611 111.978 6.62329 112.738 7.49397L109.994 10.349C109.556 9.82123 109.019 9.38349 108.414 9.05997C107.862 8.7891 107.255 8.65207 106.64 8.65997C106.024 8.65156 105.418 8.81986 104.894 9.14497C104.375 9.47008 103.953 9.92966 103.674 10.475C103.371 11.071 103.219 11.7324 103.231 12.401C103.221 13.0627 103.378 13.7163 103.688 14.301C103.98 14.8506 104.416 15.3103 104.949 15.631C105.492 15.9563 106.116 16.1242 106.749 16.116C107.335 16.1215 107.915 15.9885 108.44 15.728C109.011 15.4286 109.52 15.0242 109.94 14.536L112.601 17.308C111.855 18.1631 110.927 18.8404 109.885 19.29C108.829 19.7585 107.687 20.0001 106.532 19.999ZM122.051 19.919C120.626 20.023 119.212 19.6042 118.073 18.741C117.607 18.2952 117.245 17.7519 117.013 17.15C116.781 16.548 116.685 15.9023 116.732 15.259V8.80097H113.763V5.05898H116.732V1.28897L121.222 0.31897V5.05898H125.322V8.80097H121.222V14.372C121.197 14.6179 121.222 14.8663 121.296 15.1022C121.37 15.3381 121.491 15.5564 121.652 15.744C122.09 16.057 122.627 16.1992 123.163 16.144C123.502 16.1463 123.84 16.1232 124.175 16.075C124.517 16.02 124.856 15.9412 125.187 15.839V19.47C124.68 19.6205 124.161 19.7273 123.635 19.789C123.11 19.8661 122.581 19.9095 122.051 19.919Z" fill="black"/>
</svg>
