<svg width="24" height="24" viewBox="0 0 24 24" fill="none" xmlns="http://www.w3.org/2000/svg">
<path d="M12 13V2L20 6L12 10" stroke="#A3A3A3" stroke-width="1.5" stroke-linecap="round" stroke-linejoin="round"/>
<path d="M20.5607 10.2221C21.0928 11.8623 21.1426 13.6208 20.7041 15.2884C20.2656 16.956 19.3573 18.4626 18.0872 19.6288C16.8172 20.7951 15.2388 21.5719 13.5399 21.867C11.841 22.162 10.0932 21.9628 8.50424 21.293C6.91532 20.6233 5.55224 19.5112 4.57717 18.089C3.6021 16.6669 3.05609 14.9946 3.00409 13.2711C2.9521 11.5475 3.39631 9.84535 4.28388 8.36702C5.17145 6.88869 6.46502 5.69644 8.01068 4.93213" stroke="#A3A3A3" stroke-width="1.5" stroke-linecap="round" stroke-linejoin="round"/>
<path d="M8.00238 9.99707C7.50129 10.6641 7.17506 11.4459 7.05343 12.2713C6.93179 13.0966 7.01862 13.9393 7.30599 14.7225C7.59336 15.5057 8.07214 16.2046 8.69871 16.7554C9.32529 17.3063 10.0797 17.6916 10.8933 17.8762C11.7069 18.0609 12.5538 18.039 13.3567 17.8127C14.1597 17.5863 14.8933 17.1626 15.4906 16.5802C16.0879 15.9977 16.53 15.2751 16.7766 14.4781C17.0232 13.6811 17.0664 12.8351 16.9024 12.0171" stroke="#A3A3A3" stroke-width="1.5" stroke-linecap="round" stroke-linejoin="round"/>
</svg>
